<?xml version="1.0" standalone="no"?>
<!DOCTYPE svg PUBLIC "-//W3C//DTD SVG 20010904//EN"
 "http://www.w3.org/TR/2001/REC-SVG-20010904/DTD/svg10.dtd">
<svg version="1.0" xmlns="http://www.w3.org/2000/svg"
 width="512.000000pt" height="512.000000pt" viewBox="0 0 512.000000 512.000000"
 preserveAspectRatio="xMidYMid meet">

<g transform="translate(0.000000,512.000000) scale(0.100000,-0.100000)"
fill="#000000" stroke="none">
<path d="M1515 5109 c-167 -23 -345 -85 -486 -170 -114 -68 -174 -116 -271
-217 -221 -229 -339 -506 -354 -827 -27 -588 360 -1122 929 -1282 87 -24 97
-29 97 -50 0 -13 36 -537 80 -1166 60 -858 84 -1154 96 -1190 22 -65 100 -148
166 -178 l53 -24 1130 0 c1087 0 1132 1 1179 19 63 24 131 86 162 148 14 28
28 80 34 126 5 42 57 770 116 1617 59 847 111 1542 116 1543 43 17 106 74 128
117 72 142 -13 310 -172 339 -21 4 -38 8 -38 9 0 1 54 128 120 282 66 154 120
293 120 309 0 54 -36 111 -88 138 -67 37 -306 137 -342 145 -41 8 -115 -22
-140 -57 -11 -15 -74 -153 -140 -306 -65 -154 -119 -271 -120 -262 0 10 23
183 51 384 30 214 48 380 45 399 -8 41 -38 81 -77 101 -38 19 -381 68 -425 59
-36 -6 -88 -44 -105 -77 -9 -16 -158 -1052 -159 -1100 0 -16 -13 -18 -135 -18
-135 0 -135 0 -135 23 0 13 -7 66 -16 118 -89 517 -498 934 -1017 1034 -102
20 -308 27 -402 14z m328 -154 c475 -72 851 -434 942 -908 8 -44 15 -90 15
-103 l0 -24 -467 0 -468 0 247 248 c136 136 251 258 256 272 12 31 -7 84 -33
94 -52 20 -62 12 -327 -251 l-258 -257 0 362 0 363 -25 24 c-13 14 -31 25 -39
25 -28 0 -64 -22 -75 -47 -7 -16 -11 -139 -11 -376 l0 -351 -258 257 c-280
279 -286 283 -337 232 -51 -51 -47 -57 232 -337 l257 -258 -352 0 c-290 0
-358 -3 -381 -15 -46 -23 -54 -66 -20 -109 l20 -26 223 0 223 0 -1 -77 c-1
-65 3 -85 23 -120 l25 -43 -137 -139 c-112 -114 -137 -144 -137 -168 0 -58 55
-96 103 -72 12 6 82 70 155 142 125 125 132 130 133 102 0 -17 10 -169 22
-338 l22 -309 -30 6 c-66 13 -219 80 -304 134 -266 167 -445 428 -513 747 -19
91 -16 333 5 435 124 584 684 973 1270 885z m1862 -11 c72 -9 131 -18 133 -19
3 -2 -125 -942 -134 -982 -4 -23 -6 -23 -169 -23 -91 0 -165 4 -165 8 0 4 32
236 70 514 39 279 70 512 70 518 0 8 11 10 33 7 17 -3 91 -13 162 -23z m785
-390 c41 -18 75 -37 75 -42 0 -4 -56 -140 -125 -300 l-125 -291 -177 -1 c-98
0 -178 4 -178 8 0 8 295 697 306 714 4 7 56 -14 224 -88z m37 -803 c39 -25 51
-67 28 -110 -8 -17 -17 -32 -18 -33 -1 -2 -580 -5 -1285 -8 l-1284 -5 -24 -28
c-29 -34 -30 -56 -3 -91 l20 -26 596 0 596 0 -6 -32 c-2 -18 -17 -124 -32
-235 l-28 -202 -30 -11 c-16 -5 -65 -10 -107 -10 -82 0 -101 7 -225 84 -81 49
-143 67 -245 67 -108 0 -156 -15 -283 -88 l-102 -58 -100 0 -100 0 -96 58
c-100 60 -169 87 -224 87 l-32 0 -6 68 c-4 37 -9 113 -13 170 l-7 102 97 0
c83 0 99 3 116 20 25 25 26 71 1 101 -18 23 -26 24 -181 29 -147 5 -163 7
-176 25 -35 47 -23 107 26 132 20 10 343 13 1560 13 1497 0 1536 -1 1567 -19z
m-947 -312 c0 -25 -133 -318 -147 -323 -8 -3 -29 -6 -47 -6 -18 0 -55 -7 -81
-15 -27 -8 -50 -13 -51 -12 -3 3 45 340 51 355 6 16 275 18 275 1z m528 2
c-46 -121 -206 -475 -217 -479 -26 -10 -97 16 -182 67 -46 28 -90 54 -97 58
-10 6 6 51 64 186 l76 177 180 0 c99 0 178 -4 176 -9z m288 -83 c-4 -51 -9
-128 -13 -170 l-6 -78 -31 0 c-50 0 -125 -26 -190 -65 -32 -20 -60 -34 -62
-32 -5 5 164 405 179 425 6 7 33 12 70 12 l60 0 -7 -92z m-1801 -414 c11 -4
56 -30 100 -56 109 -67 164 -81 289 -76 89 3 109 7 166 35 36 18 90 48 121 68
101 65 237 65 338 0 31 -20 85 -50 121 -68 63 -31 70 -32 191 -32 139 0 107
-10 333 109 37 20 79 36 92 36 23 0 23 -2 18 -57 -3 -32 -45 -634 -94 -1338
-49 -704 -94 -1294 -100 -1310 -15 -40 -38 -63 -82 -86 -37 -19 -73 -19 -1141
-17 l-1104 3 -36 28 c-20 15 -44 41 -52 58 -13 23 -35 308 -105 1312 -49 705
-92 1311 -95 1346 l-6 64 37 -6 c20 -3 80 -31 135 -62 123 -71 170 -85 279
-85 111 0 160 15 276 85 70 42 108 59 146 64 54 7 136 -1 173 -15z"/>
<path d="M2845 2601 c-187 -107 -144 -384 67 -430 99 -22 207 28 255 118 35
67 32 159 -7 228 -63 110 -205 147 -315 84z m172 -143 c26 -24 31 -82 9 -110
-37 -50 -118 -39 -142 18 -34 82 68 153 133 92z"/>
<path d="M2023 2360 c-116 -58 -178 -160 -177 -290 1 -80 26 -141 84 -204 79
-86 190 -120 298 -92 146 37 231 139 240 286 5 96 -21 170 -82 234 -66 67
-115 89 -216 94 -79 3 -89 2 -147 -28z m217 -141 c95 -53 107 -203 22 -269
-144 -114 -338 60 -241 218 42 71 142 94 219 51z"/>
<path d="M3445 2001 c-80 -46 -145 -112 -145 -147 0 -69 75 -97 133 -48 29 24
31 24 41 7 16 -29 12 -191 -6 -253 -10 -30 -33 -81 -53 -114 -43 -71 -45 -107
-9 -135 35 -27 43 -27 126 10 97 42 180 55 267 40 38 -6 82 -15 96 -21 l27
-10 -43 -36 c-87 -73 -205 -114 -329 -114 -84 0 -110 -16 -110 -70 0 -36 5
-43 59 -84 105 -81 165 -168 196 -285 16 -62 14 -63 -84 -16 -89 43 -173 124
-219 212 -35 66 -58 81 -108 69 -31 -8 -54 -58 -54 -116 0 -89 -66 -225 -148
-304 l-40 -38 -8 33 c-12 56 -8 181 9 239 9 30 32 81 52 114 39 65 45 114 17
139 -27 25 -72 21 -145 -14 -80 -37 -182 -48 -279 -30 -94 18 -100 25 -58 61
86 74 256 129 344 113 63 -12 118 44 97 99 -5 15 -29 40 -53 56 -51 35 -114
101 -146 153 -25 41 -62 142 -62 171 0 17 2 17 52 -2 66 -25 151 -83 191 -131
17 -20 47 -65 67 -100 25 -44 43 -65 62 -70 33 -9 68 8 88 44 14 26 13 31 -24
103 -87 169 -247 287 -448 328 -115 24 -148 4 -148 -87 0 -121 51 -275 125
-378 l34 -47 -71 -23 c-94 -30 -199 -100 -275 -184 -108 -117 -85 -163 112
-231 70 -24 96 -28 203 -28 l123 -1 -6 -23 c-28 -113 -22 -265 16 -381 43
-135 94 -144 224 -38 76 62 142 144 182 224 l36 72 56 -50 c68 -61 194 -124
287 -144 94 -20 117 -19 142 8 18 19 22 35 22 89 0 116 -46 255 -122 366 -17
24 -28 45 -26 46 1 1 32 13 68 25 92 33 170 83 246 157 117 116 117 162 0 219
-109 52 -185 69 -309 69 -94 -1 -107 1 -102 15 4 9 11 53 17 98 23 177 -45
403 -120 403 -9 0 -39 -13 -67 -29z"/>
</g>
</svg>
