<?xml version="1.0" standalone="no"?>
<!DOCTYPE svg PUBLIC "-//W3C//DTD SVG 20010904//EN"
 "http://www.w3.org/TR/2001/REC-SVG-20010904/DTD/svg10.dtd">
<svg version="1.0" xmlns="http://www.w3.org/2000/svg"
 width="512.000000pt" height="512.000000pt" viewBox="0 0 512.000000 512.000000"
 preserveAspectRatio="xMidYMid meet">

<g transform="translate(0.000000,512.000000) scale(0.100000,-0.100000)"
fill="#000000" stroke="none">
<path d="M3342 4301 c-30 -10 -66 -27 -80 -38 -17 -12 -50 -22 -88 -25 -57 -5
-154 -44 -169 -68 -3 -5 -25 -10 -49 -10 -59 0 -125 -22 -179 -59 -42 -29 -50
-30 -104 -25 -69 7 -150 -12 -204 -49 -23 -15 -57 -26 -97 -30 -115 -12 -211
-79 -262 -182 -25 -49 -25 -54 -28 -347 l-3 -298 25 -25 c33 -33 79 -33 111 0
24 23 25 30 25 151 l0 127 26 -24 c32 -29 54 -78 54 -119 0 -41 39 -80 79 -80
47 0 80 -17 127 -65 48 -50 65 -54 138 -29 83 29 159 -3 200 -84 39 -76 47
-80 143 -67 67 10 92 3 143 -40 37 -31 48 -35 100 -35 77 0 103 -11 157 -66
48 -50 56 -51 151 -23 34 11 50 11 85 0 93 -28 105 -27 145 16 55 59 95 77
158 69 49 -6 55 -4 94 29 59 49 106 61 173 45 70 -16 87 -7 124 67 23 47 37
61 76 82 46 23 52 24 100 12 114 -27 114 -27 155 17 44 47 89 72 132 72 41 0
80 39 80 80 0 41 22 90 54 119 l26 24 0 -208 0 -208 -30 -54 c-16 -29 -30 -61
-30 -72 0 -10 14 -45 30 -76 17 -31 30 -70 30 -85 0 -15 -13 -54 -30 -85 -16
-31 -30 -65 -30 -75 0 -10 14 -44 30 -75 38 -71 38 -99 0 -170 -16 -31 -30
-65 -30 -75 0 -10 14 -44 30 -75 17 -31 30 -70 30 -85 0 -15 -13 -54 -30 -85
-16 -31 -30 -65 -30 -75 0 -10 14 -44 30 -75 35 -66 37 -94 11 -151 -29 -65
-72 -89 -157 -89 -66 -1 -74 -3 -107 -32 -56 -49 -106 -60 -171 -40 -78 25
-91 22 -145 -32 -54 -54 -89 -67 -155 -57 -40 6 -47 4 -91 -33 -55 -46 -88
-56 -149 -47 -39 6 -47 3 -85 -28 -76 -63 -147 -70 -220 -20 -46 31 -67 30
-136 -6 -31 -16 -68 -30 -81 -30 -36 0 -95 27 -127 58 -56 54 -137 24 -137
-51 0 -33 6 -46 36 -74 89 -84 210 -112 321 -74 l63 21 60 -20 c99 -33 195
-21 280 36 23 16 49 24 77 24 49 0 130 28 169 59 18 14 41 21 70 21 52 0 132
29 178 63 29 23 39 24 98 20 74 -6 144 11 207 51 21 14 59 26 94 30 108 12
195 70 246 165 44 82 51 163 22 249 l-21 62 20 60 c25 75 25 125 0 200 l-20
60 20 60 c11 33 20 78 20 100 0 22 -9 67 -20 100 l-20 60 20 60 c11 33 20 78
20 100 0 22 -9 67 -20 100 l-20 60 20 61 c20 59 21 80 18 443 l-3 381 -34 63
c-54 100 -137 156 -248 168 -35 4 -73 16 -94 30 -63 40 -133 57 -207 51 -59
-4 -69 -3 -98 20 -46 34 -126 63 -178 63 -29 0 -52 7 -70 21 -38 30 -119 59
-164 59 -23 0 -64 14 -108 36 -93 47 -165 54 -251 25 l-63 -21 -60 20 c-73 25
-129 25 -198 1z m196 -176 c48 -32 66 -32 140 6 78 41 129 36 193 -19 40 -34
47 -37 101 -35 70 3 91 -4 147 -51 42 -35 47 -37 95 -31 66 8 97 -4 152 -60
48 -50 62 -53 140 -28 65 20 115 9 171 -40 34 -30 42 -32 109 -32 58 0 78 -4
100 -21 54 -40 68 -70 72 -148 l4 -74 -53 -24 c-70 -32 -132 -95 -160 -163
-19 -46 -28 -56 -63 -69 -23 -9 -57 -29 -76 -44 -31 -26 -37 -28 -75 -19 -99
23 -241 -29 -300 -111 -28 -38 -33 -41 -81 -41 -60 -1 -119 -20 -171 -55 -26
-18 -51 -26 -80 -26 -50 0 -130 -28 -176 -62 -28 -20 -43 -23 -127 -22 -86 0
-99 3 -135 27 -53 35 -118 57 -169 57 -28 0 -54 8 -79 26 -52 35 -111 54 -171
55 -48 0 -53 3 -81 41 -18 26 -55 55 -95 77 -61 34 -71 36 -156 36 -81 0 -95
3 -130 26 -21 14 -55 32 -75 39 -27 10 -39 22 -49 49 -30 85 -109 166 -187
192 l-35 11 4 74 c4 78 18 108 72 148 22 17 43 21 100 21 68 1 76 3 109 32 51
45 107 60 160 44 93 -28 104 -27 145 17 54 58 94 76 158 68 50 -6 54 -4 100
34 54 45 87 55 149 46 39 -6 47 -4 78 23 75 66 152 75 225 26z"/>
<path d="M3125 3834 c-300 -110 -456 -171 -467 -185 -24 -28 -23 -70 2 -97 12
-13 69 -36 147 -61 582 -182 951 -291 968 -288 57 12 832 331 848 349 9 11 17
33 17 48 0 57 -11 62 -530 235 -272 91 -504 165 -515 164 -11 0 -222 -75 -470
-165z m842 -120 c219 -72 350 -120 342 -124 -33 -19 -537 -220 -550 -220 -13
0 -771 229 -777 234 -4 5 592 224 611 225 10 0 179 -51 374 -115z"/>
<path d="M1262 3181 c-30 -10 -66 -27 -80 -38 -17 -12 -50 -22 -88 -25 -57 -5
-154 -44 -169 -68 -3 -5 -25 -10 -48 -10 -60 0 -115 -17 -172 -53 -46 -29 -56
-32 -140 -33 -91 0 -115 -7 -185 -50 -19 -12 -61 -25 -93 -28 -111 -12 -207
-79 -257 -181 l-25 -50 -3 -382 c-3 -362 -2 -384 18 -442 l20 -61 -20 -60
c-25 -75 -25 -125 0 -200 l20 -60 -20 -60 c-25 -75 -25 -125 0 -200 l20 -60
-20 -60 c-25 -75 -25 -125 0 -200 l20 -60 -21 -62 c-65 -191 65 -392 267 -414
36 -4 73 -15 95 -30 63 -40 133 -57 207 -51 59 4 69 3 98 -20 46 -34 126 -63
178 -63 29 0 52 -7 70 -21 39 -31 120 -59 169 -59 28 0 54 -8 77 -24 84 -57
190 -70 286 -36 52 18 59 18 93 4 92 -39 215 -26 300 32 24 16 50 24 78 24 49
0 130 28 169 59 18 14 41 21 70 21 52 0 132 29 178 63 29 23 39 24 98 20 74
-6 144 11 207 51 21 14 59 26 94 30 108 12 195 70 246 165 44 82 51 163 22
249 l-21 62 20 60 c25 75 25 125 0 200 l-20 60 20 60 c11 33 20 78 20 100 0
22 -9 67 -20 100 l-20 60 20 60 c11 33 20 78 20 100 0 22 -9 67 -20 100 l-20
60 20 61 c20 59 21 80 18 443 l-3 381 -34 63 c-54 100 -137 156 -248 168 -35
4 -73 16 -94 30 -63 40 -133 57 -207 51 -59 -4 -69 -3 -98 20 -46 34 -126 63
-178 63 -29 0 -52 7 -70 21 -39 31 -120 59 -169 59 -26 0 -54 8 -72 20 -87 59
-186 74 -282 41 l-63 -21 -60 20 c-73 25 -129 25 -198 1z m196 -176 c48 -32
66 -32 140 6 78 41 129 36 193 -19 40 -34 47 -37 101 -35 70 3 91 -4 147 -51
42 -35 47 -37 95 -31 66 8 97 -4 152 -60 48 -50 62 -53 140 -28 65 20 115 9
171 -40 34 -30 42 -32 109 -32 58 0 78 -4 100 -21 54 -40 68 -70 72 -148 l4
-74 -53 -24 c-70 -32 -132 -95 -160 -163 -19 -46 -28 -56 -63 -69 -23 -9 -57
-29 -76 -44 -31 -26 -37 -28 -75 -19 -99 23 -241 -29 -300 -111 -28 -38 -33
-41 -81 -41 -60 -1 -119 -20 -171 -55 -26 -18 -51 -26 -80 -26 -50 0 -130 -28
-176 -62 -28 -20 -43 -23 -127 -22 -86 0 -99 3 -135 27 -53 35 -118 57 -170
57 -28 0 -51 7 -69 21 -41 33 -120 59 -179 60 -49 0 -54 2 -82 41 -18 26 -55
55 -95 77 -61 34 -71 36 -156 36 -81 0 -95 3 -130 26 -21 14 -55 32 -75 39
-27 10 -39 22 -49 49 -30 85 -109 166 -187 192 l-35 11 4 74 c4 78 18 108 72
148 22 17 43 21 100 21 68 1 76 3 109 32 51 45 107 60 160 44 93 -28 104 -27
145 17 54 58 94 76 158 68 50 -6 54 -4 100 34 54 45 87 55 149 46 39 -6 47 -4
78 23 75 66 152 75 225 26z m-1232 -782 c8 -18 14 -46 14 -63 0 -41 39 -80 79
-80 47 0 80 -17 128 -66 48 -50 46 -50 160 -23 48 12 54 11 99 -12 38 -20 54
-36 78 -81 32 -61 62 -80 106 -67 40 11 109 10 133 -2 12 -7 37 -25 55 -40 28
-25 41 -29 92 -29 77 0 103 -11 157 -66 48 -50 56 -51 151 -23 34 11 50 11 85
0 93 -28 105 -27 145 16 55 59 95 77 158 69 49 -6 55 -4 94 29 59 49 106 61
173 45 70 -16 87 -7 124 67 23 47 37 61 76 82 46 23 52 24 100 12 114 -27 114
-27 155 17 44 47 89 72 132 72 41 0 80 39 80 80 0 41 22 90 54 119 l26 24 0
-208 0 -208 -30 -54 c-17 -29 -30 -61 -30 -72 0 -10 14 -45 30 -76 17 -31 30
-70 30 -85 0 -15 -13 -54 -30 -85 -16 -31 -30 -65 -30 -75 0 -10 14 -44 30
-75 38 -71 38 -99 0 -170 -17 -31 -30 -65 -30 -75 0 -10 14 -44 30 -75 17 -31
30 -70 30 -85 0 -15 -13 -54 -30 -85 -16 -31 -30 -65 -30 -75 0 -10 13 -44 30
-75 35 -66 37 -94 11 -151 -29 -65 -72 -89 -157 -89 -66 -1 -74 -3 -107 -32
-56 -49 -106 -60 -171 -40 -78 25 -91 22 -145 -32 -54 -54 -89 -67 -155 -57
-40 6 -47 4 -91 -33 -55 -46 -88 -56 -149 -47 -39 6 -47 3 -85 -28 -76 -63
-147 -70 -220 -20 -46 31 -67 30 -136 -6 -31 -17 -68 -30 -81 -30 -36 0 -95
27 -127 58 -25 24 -35 27 -88 25 -72 -3 -92 4 -148 51 -42 35 -47 37 -95 31
-66 -8 -97 4 -153 61 -48 50 -55 51 -151 24 -55 -16 -108 -2 -159 43 -33 29
-41 31 -107 32 -85 0 -128 24 -157 89 -26 57 -24 85 11 151 17 31 30 65 30 75
0 10 -13 44 -30 75 -38 71 -38 99 0 170 17 31 30 65 30 75 0 10 -13 44 -30 75
-38 71 -38 99 0 170 17 31 30 65 30 75 0 10 -13 44 -30 75 -16 31 -30 70 -30
85 0 15 14 54 30 85 37 70 37 90 3 140 l-28 40 -3 220 -3 220 27 -25 c14 -14
33 -39 40 -57z"/>
<path d="M1045 2714 c-300 -110 -456 -171 -467 -185 -23 -27 -23 -71 -1 -98
14 -17 145 -61 553 -186 294 -91 542 -165 550 -165 32 0 845 332 863 352 9 11
17 33 17 48 0 57 -11 62 -530 235 -272 91 -504 165 -515 164 -11 0 -222 -75
-470 -165z m842 -120 c219 -72 350 -120 342 -124 -33 -19 -537 -220 -550 -220
-13 0 -771 229 -777 234 -4 5 592 224 611 225 10 0 179 -51 374 -115z"/>
<path d="M480 1667 c-49 -16 -133 -102 -148 -153 -19 -64 -15 -102 13 -129 49
-50 135 -15 135 55 0 41 39 80 80 80 41 0 80 -39 80 -80 0 -41 39 -80 80 -80
42 0 80 39 80 81 0 56 -23 110 -67 159 -65 72 -158 97 -253 67z"/>
<path d="M2320 1600 l0 -80 80 0 80 0 0 80 0 80 -80 0 -80 0 0 -80z"/>
<path d="M1120 1440 l0 -80 80 0 80 0 0 80 0 80 -80 0 -80 0 0 -80z"/>
<path d="M1545 1495 c-15 -14 -25 -36 -25 -52 0 -15 -8 -49 -17 -75 -16 -45
-16 -51 0 -95 9 -27 17 -59 17 -73 0 -14 -8 -46 -17 -72 -16 -45 -16 -51 0
-95 9 -27 17 -59 17 -73 0 -14 -8 -46 -17 -73 -16 -44 -16 -50 0 -95 9 -26 17
-58 17 -72 0 -14 -8 -46 -17 -72 -16 -45 -16 -51 1 -97 14 -38 16 -64 11 -119
-7 -67 -6 -69 20 -90 88 -69 168 47 137 198 -10 48 -10 72 0 120 9 48 9 72 0
120 -10 48 -10 72 0 120 9 48 9 72 0 120 -10 48 -10 72 0 120 9 47 9 72 -1
123 -9 48 -10 74 -2 103 25 91 -3 154 -69 154 -19 0 -40 -9 -55 -25z"/>
<path d="M2000 1280 l0 -80 80 0 80 0 0 80 0 80 -80 0 -80 0 0 -80z"/>
<path d="M2480 1200 l0 -80 80 0 80 0 0 80 0 80 -80 0 -80 0 0 -80z"/>
<path d="M880 1187 c-49 -16 -133 -102 -148 -153 -19 -64 -15 -102 13 -129 49
-50 135 -15 135 55 0 41 39 80 80 80 41 0 80 -39 80 -80 0 -70 86 -105 135
-55 45 44 27 139 -42 215 -65 72 -158 97 -253 67z"/>
<path d="M400 880 l0 -80 80 0 80 0 0 80 0 80 -80 0 -80 0 0 -80z"/>
<path d="M2025 855 c-48 -47 -26 -145 50 -220 73 -74 151 -92 248 -59 117 40
199 213 132 279 -49 50 -135 15 -135 -55 0 -41 -39 -80 -80 -80 -41 0 -80 39
-80 80 0 19 -9 40 -25 55 -15 16 -36 25 -55 25 -19 0 -40 -9 -55 -25z"/>
<path d="M1120 480 l0 -80 80 0 80 0 0 80 0 80 -80 0 -80 0 0 -80z"/>
<path d="M3920 2640 l0 -80 80 0 80 0 0 80 0 80 -80 0 -80 0 0 -80z"/>
<path d="M4400 2707 c-49 -16 -133 -102 -148 -153 -19 -64 -15 -102 13 -129
49 -50 135 -15 135 55 0 41 39 80 80 80 41 0 80 -39 80 -80 0 -41 39 -80 80
-80 42 0 80 39 80 81 0 56 -23 110 -67 159 -65 72 -158 97 -253 67z"/>
<path d="M3625 2615 c-15 -14 -25 -36 -25 -52 0 -15 -8 -49 -17 -75 -16 -45
-16 -51 0 -95 21 -60 21 -86 0 -145 -16 -45 -16 -51 0 -95 9 -27 17 -59 17
-73 0 -14 -8 -46 -17 -73 -16 -44 -16 -50 0 -95 9 -26 17 -58 17 -72 0 -14 -8
-46 -17 -72 -16 -45 -16 -51 1 -97 14 -38 16 -64 11 -119 -7 -67 -6 -69 20
-90 88 -69 168 47 137 198 -10 48 -10 72 0 120 9 48 9 72 0 120 -10 48 -10 72
0 120 9 48 9 72 0 120 -10 48 -10 72 0 120 9 47 9 72 -1 123 -9 48 -10 74 -2
103 25 91 -3 154 -69 154 -19 0 -40 -9 -55 -25z"/>
<path d="M3280 2400 l0 -80 80 0 80 0 0 80 0 80 -80 0 -80 0 0 -80z"/>
<path d="M4640 2080 l0 -80 80 0 80 0 0 80 0 80 -80 0 -80 0 0 -80z"/>
<path d="M4080 2067 c-49 -16 -133 -102 -148 -153 -19 -64 -15 -102 13 -129
49 -50 135 -15 135 55 0 41 39 80 80 80 41 0 80 -39 80 -80 0 -41 39 -80 80
-80 42 0 80 39 80 81 0 56 -23 110 -67 159 -65 72 -158 97 -253 67z"/>
<path d="M3120 1760 l0 -80 80 0 80 0 0 80 0 80 -80 0 -80 0 0 -80z"/>
</g>
</svg>
