<?xml version="1.0" standalone="no"?>
<!DOCTYPE svg PUBLIC "-//W3C//DTD SVG 20010904//EN"
 "http://www.w3.org/TR/2001/REC-SVG-20010904/DTD/svg10.dtd">
<svg version="1.0" xmlns="http://www.w3.org/2000/svg"
 width="512.000000pt" height="512.000000pt" viewBox="0 0 512.000000 512.000000"
 preserveAspectRatio="xMidYMid meet">

<g transform="translate(0.000000,512.000000) scale(0.100000,-0.100000)"
fill="#000000" stroke="none">
<path d="M535 4866 c-243 -56 -425 -221 -501 -453 -25 -76 -29 -103 -29 -203
0 -197 58 -336 199 -475 63 -63 100 -90 166 -122 199 -97 401 -97 598 -2 121
58 242 179 301 299 129 264 82 559 -124 766 -131 133 -266 192 -450 200 -64 2
-122 -1 -160 -10z m268 -161 c161 -42 307 -182 357 -344 27 -86 27 -216 0
-304 -49 -157 -189 -294 -349 -341 -71 -21 -211 -21 -281 0 -168 50 -310 197
-356 369 -18 64 -18 186 0 250 47 175 192 322 366 371 63 17 195 17 263 -1z"/>
<path d="M556 4654 c-224 -54 -376 -287 -338 -516 36 -218 230 -388 440 -388
77 0 116 66 72 123 -16 20 -33 27 -78 32 -206 24 -331 217 -266 409 24 70 102
150 172 176 73 28 186 24 247 -7 179 -93 222 -315 92 -476 -19 -23 -38 -52
-41 -64 -8 -26 16 -78 39 -87 54 -20 98 7 157 98 122 189 99 422 -57 579 -117
117 -276 161 -439 121z"/>
<path d="M629 4450 c-9 -5 -22 -23 -29 -39 -20 -48 3 -82 70 -104 71 -24 77
-30 96 -92 17 -60 28 -72 70 -81 21 -4 37 0 57 16 23 18 27 29 27 68 0 56 -35
135 -76 174 -59 55 -169 85 -215 58z"/>
<path d="M1679 4499 c-42 -16 -62 -76 -36 -110 30 -39 16 -39 1286 -39 l1230
0 27 23 c34 29 36 80 4 111 l-21 21 -1232 2 c-769 1 -1242 -2 -1258 -8z"/>
<path d="M4321 4499 c-55 -22 -68 -83 -26 -124 l24 -25 366 0 c374 0 394 2
422 39 27 35 5 95 -40 111 -38 13 -712 13 -746 -1z"/>
<path d="M1679 4109 c-42 -16 -62 -76 -36 -110 30 -39 16 -39 1286 -39 l1230
0 27 23 c35 30 37 79 5 110 l-22 22 -1232 2 c-769 1 -1242 -2 -1258 -8z"/>
<path d="M4308 4104 c-50 -27 -48 -106 2 -131 19 -10 116 -13 383 -13 366 0
386 2 414 39 27 35 5 95 -40 111 -19 6 -161 10 -381 10 -291 -1 -356 -3 -378
-16z"/>
<path d="M1660 3532 c-22 -12 -44 -35 -58 -63 l-22 -44 -723 -5 c-699 -5 -723
-6 -756 -25 -19 -11 -48 -37 -65 -58 l-31 -39 -3 -1455 -2 -1456 21 -44 c13
-27 37 -55 62 -71 l41 -27 371 -3 c365 -3 372 -2 398 18 41 32 35 104 -10 126
-10 5 -175 11 -368 14 l-350 5 -3 1166 -2 1166 38 7 c47 7 75 36 75 78 0 39
-41 78 -84 78 -27 0 -29 3 -29 39 l0 39 79 3 c95 5 121 22 121 80 0 58 -33 79
-127 79 l-74 0 3 58 3 57 711 3 711 2 17 -62 c10 -35 32 -94 50 -133 l32 -69
-52 -52 c-60 -60 -99 -135 -115 -217 -6 -37 -9 -203 -7 -465 4 -452 4 -453 72
-556 43 -64 113 -119 189 -148 64 -25 271 -36 362 -19 123 23 231 106 288 221
l32 65 0 470 0 470 -27 58 c-15 32 -52 84 -83 116 l-55 58 34 74 c19 41 42
100 51 132 l16 57 1282 -2 1282 -3 3 -1102 2 -1103 -24 0 c-40 0 -74 -21 -85
-52 -18 -51 12 -95 71 -104 l38 -7 0 -52 0 -52 -52 -5 c-59 -6 -88 -32 -88
-78 0 -46 29 -72 88 -78 l53 -5 -3 -106 -3 -106 -1891 -5 c-2049 -5 -1914 -1
-1935 -57 -10 -27 4 -70 29 -89 14 -11 374 -13 1916 -14 l1900 0 44 21 c26 13
54 38 70 62 l27 41 0 1467 0 1467 -31 39 c-17 21 -46 47 -65 58 -33 20 -54 20
-1330 23 l-1295 2 -12 33 c-32 88 -126 121 -219 76 -26 -13 -77 -53 -112 -89
l-64 -65 -61 64 c-97 101 -189 133 -266 93z m137 -184 c25 -24 66 -74 92 -113
78 -119 119 -120 195 -5 48 72 129 160 147 160 16 0 9 -96 -12 -161 -12 -35
-33 -88 -48 -117 l-27 -54 -155 0 -154 0 -37 73 c-51 102 -86 259 -58 259 6 0
31 -19 57 -42z m113 -558 c0 -60 5 -120 11 -134 16 -34 63 -50 97 -33 42 19
52 52 52 170 0 95 2 107 18 107 70 0 168 -70 196 -141 9 -22 19 -67 23 -99 l6
-58 -54 -31 c-84 -49 -168 -71 -268 -71 -115 0 -192 21 -283 77 -35 22 -38 27
-38 71 0 68 25 134 67 177 41 42 104 74 146 75 l27 0 0 -110z m-75 -385 c124
-32 325 -11 434 45 l41 20 0 -79 0 -79 -69 -36 c-168 -88 -366 -84 -528 11
l-43 25 0 78 0 79 53 -24 c28 -13 79 -31 112 -40z m-80 -259 c161 -67 345 -57
538 28 15 7 17 1 17 -67 l0 -74 -37 -25 c-88 -56 -176 -80 -294 -80 -96 0
-199 30 -270 77 l-39 25 0 76 c0 57 3 75 13 71 6 -3 39 -17 72 -31z m-27 -275
c83 -42 219 -62 334 -50 65 8 139 29 221 64 46 20 -3 -86 -65 -139 -56 -48
-90 -56 -238 -56 -143 0 -182 12 -243 75 -35 36 -75 125 -56 125 5 0 27 -9 47
-19z"/>
<path d="M755 3046 c-119 -29 -213 -107 -268 -224 l-32 -67 0 -460 0 -460 32
-67 c78 -166 211 -238 438 -238 173 0 268 32 356 120 55 55 92 122 109 200 8
39 11 177 8 481 l-3 425 -38 76 c-57 116 -152 191 -275 217 -69 14 -263 13
-327 -3z m78 -215 c-48 -37 -119 -97 -157 -132 l-69 -64 6 56 c13 126 109 208
245 209 l64 0 -89 -69z m309 24 c33 -23 78 -81 78 -102 0 -5 -30 -24 -67 -42
-148 -72 -314 -193 -455 -330 l-88 -85 0 98 0 98 86 84 c124 122 358 302 394
303 9 1 32 -10 52 -24z m98 -337 l0 -123 -95 -53 c-142 -79 -286 -191 -417
-322 l-118 -118 0 118 0 119 62 72 c114 132 295 277 473 378 49 28 90 51 92
51 2 0 3 -55 3 -122z m0 -351 l0 -103 -54 -33 c-104 -63 -254 -191 -349 -299
l-38 -44 -53 26 c-29 14 -61 35 -71 46 -17 19 -17 21 0 47 33 50 208 224 292
289 81 64 249 174 265 174 4 0 8 -46 8 -103z m-9 -307 c-30 -101 -126 -170
-235 -170 l-60 0 35 36 c42 44 170 151 224 188 l40 26 3 -22 c2 -12 -1 -38 -7
-58z"/>
<path d="M2918 3050 c-147 -25 -269 -134 -317 -283 -15 -45 -34 -306 -34 -472
0 -174 19 -432 38 -492 19 -63 88 -159 141 -195 97 -67 123 -73 314 -73 175 0
175 0 240 31 104 49 181 139 219 255 14 43 34 323 34 474 0 142 -20 415 -34
468 -39 147 -169 262 -326 287 -68 11 -207 11 -275 0z m328 -177 c88 -47 134
-136 134 -260 0 -60 -1 -63 -24 -63 -22 0 -23 4 -29 80 -7 108 -36 158 -112
195 -52 26 -61 27 -174 24 -114 -4 -121 -5 -162 -34 -58 -41 -81 -91 -87 -186
-4 -75 -6 -79 -28 -79 -23 0 -24 3 -24 78 1 123 46 201 145 249 47 22 59 24
185 21 115 -3 141 -7 176 -25z m-88 -195 c7 -7 12 -38 12 -70 0 -58 0 -58 -30
-58 -29 0 -30 2 -30 42 0 101 -94 104 -102 3 -3 -35 -6 -40 -30 -43 -28 -3
-28 -3 -28 61 0 35 3 67 7 70 12 12 188 8 201 -5z m240 -385 l3 -103 -341 0
-340 0 0 105 0 105 338 -2 337 -3 3 -102z m-608 -320 c0 -81 16 -128 57 -174
47 -52 84 -61 235 -57 124 3 127 4 165 34 52 41 73 90 80 179 6 72 7 75 31 75
24 0 25 0 20 -82 -7 -126 -50 -197 -148 -242 -38 -18 -64 -21 -175 -21 -125 0
-132 1 -184 30 -91 50 -131 125 -131 246 0 67 1 69 25 69 24 0 25 -3 25 -57z
m220 14 c0 -49 13 -67 50 -67 37 0 50 18 50 67 0 41 1 43 30 43 30 0 30 0 30
-58 0 -32 -5 -63 -12 -70 -7 -7 -44 -12 -98 -12 -54 0 -91 5 -98 12 -7 7 -12
38 -12 70 0 58 0 58 30 58 29 0 30 -2 30 -43z"/>
<path d="M4037 3050 c-71 -13 -101 -25 -161 -65 -65 -43 -118 -109 -147 -184
-37 -95 -52 -481 -31 -811 13 -206 37 -269 141 -363 84 -74 138 -91 319 -95
198 -4 268 16 366 107 91 86 116 152 128 351 21 330 6 715 -31 811 -41 108
-141 202 -250 236 -55 17 -266 26 -334 13z m295 -166 c26 -8 63 -32 83 -51 56
-55 75 -104 75 -200 l0 -83 -315 0 -315 0 0 83 c0 96 19 145 75 200 20 20 56
43 79 51 58 21 258 21 318 0z m178 -589 l0 -105 -335 0 -335 0 0 105 0 105
335 0 335 0 0 -105z m-20 -345 c0 -93 -13 -131 -65 -188 -55 -61 -106 -77
-250 -77 -144 0 -195 16 -250 77 -52 57 -65 95 -65 188 l0 80 315 0 315 0 0
-80z"/>
<path d="M600 1377 c-52 -16 -123 -93 -139 -147 -9 -33 -11 -113 -9 -282 l3
-236 30 -43 c17 -24 50 -57 74 -74 l43 -30 238 -3 c154 -2 253 1 280 8 55 15
134 92 149 145 14 52 14 467 0 519 -14 51 -91 128 -145 144 -53 16 -474 15
-524 -1z m502 -164 c16 -15 18 -36 18 -236 0 -191 -2 -223 -17 -239 -15 -16
-36 -18 -236 -18 -191 0 -223 2 -239 17 -16 15 -18 36 -18 236 0 191 2 223 17
239 15 16 36 18 236 18 191 0 223 -2 239 -17z"/>
<path d="M787 1206 c-55 -21 -103 -61 -134 -114 -24 -39 -28 -58 -28 -117 1
-75 16 -117 64 -168 46 -50 98 -71 176 -71 78 0 130 21 176 71 48 51 63 92 63
168 0 76 -15 117 -63 168 -58 64 -175 93 -254 63z m138 -171 c54 -53 16 -145
-60 -145 -76 0 -114 92 -60 145 16 17 35 25 60 25 25 0 44 -8 60 -25z"/>
<path d="M1446 1375 c-49 -17 -103 -68 -127 -120 -16 -35 -19 -67 -19 -280 0
-264 5 -288 66 -349 61 -61 85 -66 344 -66 215 0 239 2 280 21 56 25 86 53
113 104 21 38 22 53 22 290 0 237 -1 252 -22 290 -27 51 -57 79 -113 104 -41
19 -65 21 -275 20 -170 0 -240 -3 -269 -14z m504 -165 c19 -19 20 -33 20 -235
0 -202 -1 -216 -20 -235 -19 -19 -33 -20 -238 -20 -210 0 -220 1 -238 21 -17
19 -19 39 -19 234 0 195 2 215 19 234 18 20 28 21 238 21 205 0 219 -1 238
-20z"/>
<path d="M1650 1211 c-173 -53 -237 -258 -121 -392 147 -173 425 -71 425 156
0 72 -23 124 -76 176 -59 57 -154 82 -228 60z m118 -171 c58 -55 24 -150 -54
-150 -78 0 -115 90 -59 145 30 31 82 33 113 5z"/>
<path d="M2270 1363 c-65 -35 -106 -91 -120 -162 -13 -69 -13 -382 0 -452 14
-73 53 -127 119 -161 l53 -28 238 0 238 0 53 28 c66 34 105 88 119 161 13 70
13 383 0 452 -14 71 -55 127 -120 162 l-52 27 -238 0 -238 0 -52 -27z m529
-159 c20 -25 21 -40 21 -226 0 -194 -5 -231 -34 -250 -6 -4 -108 -8 -226 -8
-118 0 -220 4 -226 8 -29 19 -34 56 -34 250 0 186 1 201 21 226 l20 26 219 0
219 0 20 -26z"/>
<path d="M2485 1208 c-102 -37 -165 -126 -165 -233 0 -141 99 -240 240 -240
141 0 240 99 240 240 0 98 -52 179 -139 221 -44 21 -135 28 -176 12z m135
-173 c52 -55 15 -145 -60 -145 -26 0 -43 7 -60 25 -52 55 -15 145 60 145 26 0
43 -7 60 -25z"/>
<path d="M3130 1369 c-56 -25 -86 -53 -113 -104 -21 -38 -22 -53 -22 -290 0
-237 1 -252 22 -290 27 -51 57 -79 113 -104 41 -19 65 -21 280 -21 259 0 283
5 344 66 61 61 66 85 66 349 0 211 -3 245 -19 280 -23 51 -89 111 -138 124
-22 6 -135 11 -263 11 -205 0 -229 -2 -270 -21z m516 -160 c17 -19 19 -39 19
-234 0 -195 -2 -215 -19 -234 -18 -20 -28 -21 -238 -21 -205 0 -219 1 -238 20
-19 19 -20 33 -20 235 0 202 1 216 20 235 19 19 33 20 238 20 210 0 220 -1
238 -21z"/>
<path d="M3323 1204 c-23 -8 -59 -32 -80 -53 -54 -52 -77 -104 -77 -176 0
-178 180 -295 340 -221 230 107 168 445 -85 462 -35 2 -72 -2 -98 -12z m134
-159 c32 -22 43 -65 28 -102 -41 -96 -186 -48 -161 52 14 57 85 83 133 50z"/>
<path d="M3990 1377 c-48 -15 -126 -95 -139 -143 -14 -52 -14 -467 0 -519 15
-53 94 -130 149 -145 27 -7 126 -10 280 -8 l238 3 43 30 c24 17 57 50 74 74
l30 43 3 236 c2 169 0 249 -9 282 -17 58 -88 131 -145 148 -53 16 -474 15
-524 -1z m502 -164 c16 -15 18 -36 18 -236 0 -191 -2 -223 -17 -239 -15 -16
-36 -18 -236 -18 -191 0 -223 2 -239 17 -16 15 -18 36 -18 236 0 191 2 223 17
239 15 16 36 18 236 18 191 0 223 -2 239 -17z"/>
<path d="M4190 1211 c-114 -37 -174 -119 -174 -236 0 -76 15 -117 63 -168 46
-50 98 -71 176 -71 52 0 80 5 110 21 172 92 178 330 10 428 -48 29 -139 41
-185 26z m125 -176 c54 -53 16 -145 -60 -145 -49 0 -85 36 -85 85 0 49 36 85
85 85 25 0 44 -8 60 -25z"/>
</g>
</svg>
