<?xml version="1.0" standalone="no"?>
<!DOCTYPE svg PUBLIC "-//W3C//DTD SVG 20010904//EN"
 "http://www.w3.org/TR/2001/REC-SVG-20010904/DTD/svg10.dtd">
<svg version="1.0" xmlns="http://www.w3.org/2000/svg"
 width="512.000000pt" height="512.000000pt" viewBox="0 0 512.000000 512.000000"
 preserveAspectRatio="xMidYMid meet">

<g transform="translate(0.000000,512.000000) scale(0.100000,-0.100000)"
fill="#000000" stroke="none">
<path d="M4065 4491 c-45 -11 -57 -18 -391 -243 l-311 -209 -53 33 c-68 42
-163 51 -232 21 l-44 -20 -38 33 c-21 18 -66 42 -100 53 -158 52 -1117 301
-1158 301 -68 0 -131 -26 -179 -75 -75 -76 -94 -159 -63 -277 8 -33 14 -62 12
-64 -2 -2 -109 67 -238 153 -277 185 -313 203 -396 203 -109 0 -215 -77 -244
-178 -6 -20 -17 -145 -25 -277 -9 -132 -18 -264 -21 -292 l-5 -53 -67 0 c-82
0 -135 -23 -190 -80 -45 -45 -72 -112 -72 -174 0 -23 27 -143 60 -266 33 -124
60 -228 60 -231 0 -4 -22 -9 -49 -13 -118 -16 -247 -119 -292 -234 -36 -89
-32 -210 10 -327 155 -429 467 -790 907 -1050 112 -66 112 -66 119 -111 34
-231 224 -429 460 -479 59 -12 222 -15 1029 -15 658 0 980 3 1025 11 236 40
441 248 476 483 7 44 7 45 119 110 301 179 574 436 733 691 68 109 140 260
179 375 38 111 40 226 5 312 -41 106 -168 213 -272 232 -36 6 -40 12 -204 297
-92 159 -169 298 -171 307 -2 9 -15 193 -29 407 -14 215 -28 408 -31 430 -24
151 -172 251 -319 216z m135 -179 c32 -32 34 -45 50 -322 6 -96 12 -192 14
-213 l4 -37 -45 39 c-108 96 -263 91 -360 -11 -17 -18 -66 -93 -108 -165 -73
-128 -78 -133 -118 -143 -23 -7 -64 -18 -91 -26 -88 -25 -81 -38 -95 184 -7
108 -14 216 -18 239 l-5 42 331 220 c295 197 336 221 372 221 31 0 47 -7 69
-28z m-1911 -148 c562 -150 621 -168 605 -183 -13 -13 -493 -331 -498 -331 -3
0 -42 66 -88 146 -46 80 -98 164 -117 186 -87 102 -242 117 -353 35 -16 -12
-45 -45 -64 -74 -19 -29 -39 -53 -45 -53 -14 0 -25 31 -64 182 -35 136 -36
138 -19 174 15 32 57 62 88 64 5 0 255 -66 555 -146z m-1003 -164 c366 -245
375 -252 362 -273 -8 -12 -57 -96 -108 -186 -52 -90 -100 -165 -106 -168 -11
-4 -634 157 -679 176 l-20 9 18 303 c20 325 25 350 78 376 53 28 68 20 455
-237z m1942 -60 c18 -11 36 -30 41 -43 9 -22 46 -516 39 -522 -2 -2 -111 -31
-243 -65 -132 -34 -279 -72 -327 -85 l-87 -23 -86 148 c-47 81 -85 152 -85
157 0 9 592 409 650 440 35 18 60 16 98 -7z m-1161 -52 c30 -31 593 -1008 593
-1030 0 -17 -33 -18 -665 -18 -548 0 -665 2 -665 13 0 8 46 94 103 193 460
799 483 837 512 856 38 24 90 18 122 -14z m2055 -225 c15 -15 478 -809 478
-819 0 -2 -115 -4 -256 -4 -240 0 -256 1 -249 18 19 49 17 71 -8 96 -64 64
-156 1 -121 -82 l13 -32 -34 0 c-19 0 -36 3 -38 8 -2 4 15 77 39 162 52 186
56 243 18 318 -23 47 -61 88 -101 111 -14 7 -9 22 39 107 59 103 89 139 123
146 28 6 76 -9 97 -29z m-3193 -323 c225 -60 412 -110 415 -110 14 0 2 -25
-74 -157 -50 -85 -83 -156 -88 -183 l-8 -45 -314 -3 c-172 -1 -317 1 -322 6
-7 7 -52 164 -113 402 -21 78 -23 100 -14 128 11 34 59 72 91 72 9 0 201 -49
427 -110z m2878 -55 c13 -14 26 -37 29 -49 5 -19 -33 -174 -92 -378 -4 -15
-17 -18 -75 -18 -63 0 -85 9 -59 25 18 11 11 68 -12 92 -45 48 -128 14 -128
-53 0 -18 5 -36 10 -39 34 -21 -16 -25 -324 -25 l-334 0 -6 38 c-4 20 -23 70
-43 109 -20 40 -35 74 -32 76 2 3 220 61 484 130 519 136 541 140 582 92z
m988 -606 c24 -6 63 -27 86 -47 86 -74 100 -170 48 -319 -136 -384 -426 -711
-860 -971 l-87 -52 -1088 0 -1088 0 -23 -22 c-30 -28 -30 -74 -1 -105 l21 -23
1050 0 1049 0 -7 -37 c-19 -107 -124 -230 -242 -286 l-68 -32 -1026 0 -1025 0
-76 38 c-117 57 -212 173 -234 285 l-6 32 168 0 c158 0 169 1 191 22 30 28 30
74 1 105 -21 23 -25 23 -229 23 l-208 0 -88 51 c-353 207 -618 473 -777 779
-108 210 -139 344 -97 436 23 50 90 109 139 122 55 15 4419 15 4477 1z"/>
<path d="M4022 4137 c-28 -30 -29 -80 -2 -107 30 -30 83 -27 109 6 28 35 26
69 -4 99 -31 32 -74 33 -103 2z"/>
<path d="M3763 4012 c-30 -5 -53 -39 -53 -78 0 -54 58 -86 108 -60 81 42 36
153 -55 138z"/>
<path d="M3545 3695 c-30 -30 -32 -64 -4 -99 43 -54 129 -23 129 47 0 69 -77
101 -125 52z"/>
<path d="M1712 4207 c-29 -31 -28 -72 3 -102 48 -49 125 -16 125 53 0 67 -82
98 -128 49z"/>
<path d="M2371 3954 c-24 -30 -26 -43 -10 -77 11 -24 47 -47 74 -47 8 0 26 11
41 23 32 28 36 78 8 108 -27 30 -87 26 -113 -7z"/>
<path d="M881 3984 c-26 -33 -27 -65 -3 -93 44 -54 132 -24 132 45 0 71 -86
103 -129 48z"/>
<path d="M1201 3843 c-51 -43 -24 -133 39 -133 43 0 61 10 75 44 31 73 -53
139 -114 89z"/>
<path d="M910 3727 c-39 -20 -56 -58 -41 -94 12 -29 46 -53 76 -53 8 0 26 11
41 23 65 56 0 162 -76 124z"/>
<path d="M1203 3605 c-45 -32 -31 -118 22 -131 39 -10 73 4 90 36 28 53 -6
110 -65 110 -14 0 -35 -7 -47 -15z"/>
<path d="M2820 3650 c-30 -30 -27 -83 6 -109 15 -12 38 -21 51 -21 33 0 73 42
73 78 0 61 -86 96 -130 52z"/>
<path d="M3058 3526 c-42 -32 -42 -103 1 -125 71 -38 143 28 107 97 -22 43
-72 56 -108 28z"/>
<path d="M2765 3430 c-77 -30 -57 -143 25 -143 41 0 73 32 73 73 0 50 -53 88
-98 70z"/>
<path d="M1930 3620 c-30 -30 -27 -83 6 -109 15 -12 38 -21 51 -21 33 0 73 42
73 78 0 61 -86 96 -130 52z"/>
<path d="M2098 3333 c-26 -29 -30 -60 -14 -91 16 -31 34 -42 69 -42 69 1 98
107 38 139 -30 16 -76 13 -93 -6z"/>
<path d="M1686 3229 c-53 -42 -19 -129 50 -129 67 0 100 88 48 129 -15 12 -37
21 -49 21 -12 0 -34 -9 -49 -21z"/>
<path d="M1992 3017 c-29 -31 -28 -72 3 -102 30 -30 64 -32 99 -4 33 26 36 79
6 109 -28 28 -81 26 -108 -3z"/>
<path d="M2302 3017 c-29 -31 -28 -72 3 -102 30 -30 64 -32 99 -4 33 26 36 79
6 109 -28 28 -81 26 -108 -3z"/>
<path d="M4042 3385 c-52 -22 -58 -93 -10 -128 64 -48 153 41 104 105 -21 29
-58 38 -94 23z"/>
<path d="M4244 3140 c-26 -10 -54 -48 -54 -72 0 -9 11 -29 23 -44 46 -53 130
-23 130 46 0 51 -53 88 -99 70z"/>
<path d="M855 3265 c-14 -13 -25 -36 -25 -50 0 -14 11 -37 25 -50 60 -61 153
2 120 81 -21 51 -80 60 -120 19z"/>
<path d="M1083 3075 c-32 -14 -43 -32 -43 -71 0 -33 42 -74 75 -74 14 0 37 11
50 25 62 61 -1 154 -82 120z"/>
<path d="M3304 3149 c-22 -11 -44 -48 -44 -74 0 -8 11 -26 23 -41 46 -53 130
-23 130 46 0 54 -61 92 -109 69z"/>
<path d="M2970 3013 c-57 -72 45 -167 107 -100 50 53 20 127 -51 127 -26 0
-40 -7 -56 -27z"/>
</g>
</svg>
