<?xml version="1.0" standalone="no"?>
<!DOCTYPE svg PUBLIC "-//W3C//DTD SVG 20010904//EN"
 "http://www.w3.org/TR/2001/REC-SVG-20010904/DTD/svg10.dtd">
<svg version="1.0" xmlns="http://www.w3.org/2000/svg"
 width="512.000000pt" height="512.000000pt" viewBox="0 0 512.000000 512.000000"
 preserveAspectRatio="xMidYMid meet">

<g transform="translate(0.000000,512.000000) scale(0.100000,-0.100000)"
fill="#000000" stroke="none">
<path d="M2265 4074 c-16 -2 -73 -9 -125 -15 -331 -37 -732 -179 -1020 -359
-292 -182 -563 -441 -748 -714 -98 -143 -292 -480 -292 -506 0 -43 24 -62 170
-135 l150 -75 0 -38 c1 -20 9 -60 18 -88 l18 -51 -29 -34 c-42 -49 -78 -131
-84 -192 -11 -104 51 -235 133 -286 38 -24 42 -29 36 -56 -4 -16 -7 -62 -6
-100 0 -60 6 -80 34 -133 58 -110 149 -165 270 -166 41 -1 94 5 117 13 40 13
43 13 74 -13 17 -15 55 -39 83 -54 43 -22 64 -26 136 -26 77 -1 91 2 142 30
l57 31 61 -30 c53 -26 73 -31 140 -31 67 0 87 5 139 30 l61 31 61 -31 c52 -25
72 -30 139 -30 67 0 87 5 139 30 l61 31 61 -31 c76 -37 175 -42 252 -13 46 18
48 18 95 0 76 -29 175 -24 251 13 l61 31 61 -31 c52 -25 72 -30 139 -30 67 0
87 5 139 30 l61 31 61 -31 c52 -25 72 -30 139 -30 67 0 87 5 140 31 l61 30 57
-31 c50 -27 67 -31 137 -31 66 0 89 5 135 26 30 15 70 40 89 56 l34 29 56 -19
c111 -38 261 5 332 94 63 80 94 200 71 282 -10 37 -10 37 34 68 l45 31 37 -28
c20 -16 70 -54 111 -86 85 -67 117 -73 158 -32 l26 26 -6 135 c-31 632 -290
1218 -736 1663 -285 283 -628 507 -976 636 -128 47 -367 107 -515 129 -109 16
-475 29 -545 19z m169 -203 c-182 -128 -336 -339 -390 -538 -19 -70 -14 -67
-139 -78 -142 -13 -450 -78 -618 -129 l-47 -15 6 27 c47 193 190 431 348 579
70 66 79 71 177 100 125 38 262 67 384 82 130 16 150 18 254 19 l94 2 -69 -49z
m557 -15 c107 -24 275 -78 358 -113 l43 -19 -67 -44 c-142 -91 -277 -242 -343
-383 -31 -64 -40 -76 -57 -73 -121 28 -432 56 -608 56 l-119 0 6 28 c11 48 85
188 131 250 109 144 279 258 458 307 70 19 77 18 198 -9z m694 -283 c119 -72
319 -221 405 -301 l65 -61 -41 -36 c-52 -44 -144 -164 -178 -232 l-26 -52
-112 53 c-195 92 -401 167 -596 217 -51 13 -92 27 -92 32 0 13 41 89 73 137
76 110 184 200 317 264 41 20 78 36 82 36 5 0 51 -26 103 -57z m-2410 11 c-92
-140 -180 -353 -201 -484 -4 -22 -12 -44 -18 -49 -6 -4 -63 -30 -126 -57 -139
-58 -322 -151 -447 -227 -51 -31 -93 -54 -93 -52 0 13 108 177 173 264 91 123
324 356 447 448 85 64 266 183 278 183 2 0 -3 -12 -13 -26z m1286 -475 c74 -6
152 -14 174 -18 l39 -6 -63 -49 c-75 -58 -152 -149 -206 -244 l-40 -69 -130
-7 c-185 -10 -436 -45 -579 -81 -26 -7 -28 -6 -21 16 16 52 85 190 125 249 23
34 74 96 112 136 69 72 70 73 126 77 131 8 338 6 463 -4z m1794 -116 c92 -115
185 -254 248 -373 52 -97 131 -279 124 -286 -2 -2 -69 48 -148 111 -183 147
-381 287 -518 365 -11 6 -7 21 24 76 37 67 160 204 181 204 6 0 46 -44 89 -97z
m-2579 65 c-99 -135 -139 -210 -191 -361 l-40 -119 -130 -47 c-148 -55 -266
-106 -414 -181 -57 -28 -105 -49 -108 -46 -9 9 25 175 53 261 32 100 80 205
127 277 l35 56 139 45 c171 57 451 128 537 136 5 1 1 -9 -8 -21z m1425 -62
c148 -41 313 -99 444 -157 l96 -42 -76 -70 c-42 -38 -94 -96 -116 -128 l-39
-58 -58 20 c-205 72 -599 149 -758 149 -26 0 -44 5 -44 11 0 37 142 186 223
234 62 36 156 74 183 75 11 0 76 -15 145 -34z m-2354 -233 c-3 -10 -22 -62
-42 -116 -36 -101 -75 -270 -75 -326 0 -17 -3 -31 -7 -30 -5 0 -95 44 -202 98
l-194 98 134 80 c154 93 370 213 383 213 4 0 6 -8 3 -17z m3201 -134 c112 -68
315 -210 327 -229 3 -4 -25 -29 -62 -53 -38 -25 -85 -63 -107 -85 l-38 -40
-92 55 c-91 56 -284 154 -363 186 -24 9 -43 21 -43 26 0 16 75 105 114 134 48
37 117 77 134 77 7 0 66 -32 130 -71z m-1189 -94 c336 -46 642 -140 940 -289
220 -111 328 -181 603 -394 194 -150 194 -149 97 -171 -79 -18 -100 -75 -53
-145 14 -21 28 -55 31 -76 19 -142 -152 -235 -260 -141 -64 56 -109 49 -151
-23 -65 -111 -173 -127 -266 -40 -64 60 -95 60 -162 -1 -82 -73 -154 -73 -236
0 -67 60 -97 60 -164 0 -82 -73 -154 -73 -236 0 -67 61 -98 61 -162 1 -71 -67
-141 -73 -218 -21 -46 32 -78 32 -124 0 -77 -52 -147 -46 -218 21 -64 60 -95
60 -162 -1 -82 -74 -158 -74 -238 1 -64 60 -95 60 -162 -1 -82 -74 -158 -74
-238 1 -64 60 -96 60 -160 0 -93 -87 -201 -71 -266 40 -42 72 -87 79 -151 23
-108 -94 -279 -1 -260 141 3 21 17 55 31 76 47 70 26 127 -54 145 -61 14 -105
50 -125 104 -32 81 -4 151 81 200 72 42 79 88 22 154 -16 18 -27 35 -25 38 3
2 50 -19 106 -46 55 -28 110 -51 121 -51 11 0 115 48 232 106 223 111 363 172
516 223 201 67 452 119 677 140 136 13 495 5 634 -14z m1809 -366 c75 -62 140
-115 145 -119 18 -16 69 -350 53 -350 -9 0 -550 420 -554 430 -5 14 84 85 148
118 35 17 64 32 66 32 2 0 66 -50 142 -111z"/>
<path d="M1200 2067 c-49 -16 -133 -102 -148 -153 -22 -74 -21 -74 66 -74 77
0 77 0 92 33 18 38 58 55 98 41 15 -5 33 -23 42 -41 15 -33 15 -33 93 -33 65
0 77 3 77 16 0 76 -80 182 -157 208 -53 18 -112 19 -163 3z"/>
<path d="M2400 2064 c0 -47 28 -102 75 -149 73 -74 151 -92 248 -59 77 26 157
132 157 208 0 13 -12 16 -77 16 -78 0 -78 0 -93 -33 -29 -62 -111 -62 -140 0
-15 33 -15 33 -92 33 -66 0 -78 -3 -78 -16z"/>
<path d="M3600 2067 c-49 -16 -133 -102 -148 -153 -22 -74 -21 -74 66 -74 77
0 77 0 92 33 9 18 27 36 43 41 39 14 79 -3 97 -41 15 -33 15 -33 93 -33 65 0
77 3 77 16 0 76 -80 182 -157 208 -53 18 -112 19 -163 3z"/>
<path d="M1920 1827 c-49 -16 -133 -102 -148 -153 -22 -74 -21 -74 66 -74 77
0 77 0 92 33 18 38 58 55 98 41 15 -5 33 -23 42 -41 15 -33 15 -33 93 -33 65
0 77 3 77 16 0 76 -80 182 -157 208 -53 18 -112 19 -163 3z"/>
<path d="M2960 1664 c0 -47 28 -102 75 -149 73 -74 151 -92 248 -59 77 26 157
132 157 208 0 13 -12 16 -77 16 -78 0 -78 0 -93 -33 -29 -62 -111 -62 -140 0
-15 33 -15 33 -92 33 -66 0 -78 -3 -78 -16z"/>
</g>
</svg>
