<svg width="53" height="48" viewBox="0 0 53 48" fill="none" xmlns="http://www.w3.org/2000/svg">
<path fill-rule="evenodd" clip-rule="evenodd" d="M45.603 16.6997C44.9897 15.2637 44.3084 13.6686 41.4663 14.6453V6.89655C41.4663 2.89523 34.7196 0 26.5 0C18.2804 0 11.5337 2.89523 11.5337 6.89655V41.1034C11.5337 45.1048 18.2804 48 26.5 48C34.7196 48 41.4663 45.1048 41.4663 41.1034V20.4599C44.0016 20.7935 44.5486 22.7863 44.0751 24.8474L46.6839 25.2612C47.2692 21.4816 45.9834 18.9679 41.4663 18.7711V17.1948C43.202 16.3589 44.2631 17.7252 45.3512 19.1262C46.2435 20.275 47.1538 21.4471 48.4689 21.4471C50.3912 21.4471 51.9016 20.4816 53 18.5505L50.6658 15.3781C50.2081 17.4931 49.1097 18.5505 47.3705 18.5505C46.3935 18.5505 46.0135 17.6607 45.603 16.6997ZM30.4898 25.737C29.1593 25.4131 27.7914 25.0801 26.4449 25.0801C25.0768 25.0801 23.6947 25.42 22.3551 25.7494C18.8577 26.6094 15.651 27.398 13.7452 21.879C11.4206 15.1465 16.7273 16.6302 21.5659 17.9829C23.4433 18.5078 25.2503 19.013 26.5136 19.0109C27.7277 19.0088 29.4709 18.5356 31.2936 18.0407L31.2936 18.0407C36.0905 16.7385 41.4385 15.2867 39.1449 21.879C37.2314 27.378 33.9897 26.5889 30.4898 25.737ZM19.7657 20.7469C19.1763 20.4767 18.5928 20.2286 18.0421 20.049C17.9652 21.0237 18.3857 21.9303 19.3238 22.8138C20.1427 23.585 20.9144 23.675 21.7419 23.0086C22.0146 22.7081 22.2508 22.369 22.4506 21.9914C22.114 21.8503 21.7635 21.6901 21.4056 21.5219C21.4149 21.5796 21.4197 21.6387 21.4197 21.699C21.4197 22.3085 20.9279 22.8025 20.3213 22.8025C19.7146 22.8025 19.2228 22.3085 19.2228 21.699C19.2228 21.2932 19.4409 20.9386 19.7657 20.7469ZM14.829 21.0094C15.1835 19.9412 15.969 19.6619 16.9637 19.7909C16.796 21.1648 17.34 22.458 18.5726 23.6188C18.9278 23.9533 19.287 24.1983 19.6478 24.3556C19.0714 24.5544 18.4263 24.6804 17.7124 24.7335C20.5032 25.2592 22.5046 24.4911 23.7166 22.4292C24.8807 22.7109 25.6762 22.4358 25.6762 20.8715C25.2709 22.4999 23.4253 21.3818 21.3644 20.1332C18.5375 18.4205 15.3055 16.4624 14.829 21.0094ZM31.5868 21.4993C31.2255 21.6858 30.8714 21.8604 30.5297 22.0068C30.7303 22.3874 30.9678 22.7288 31.2422 23.0312C32.0698 23.6977 32.8414 23.6076 33.6603 22.8364C34.6425 21.9114 35.0573 20.9611 34.928 19.9339C34.3352 20.111 33.7171 20.3947 33.0984 20.7084C33.4884 20.8778 33.7613 21.2677 33.7613 21.7217C33.7613 22.3311 33.2695 22.8251 32.6629 22.8251C32.0562 22.8251 31.5644 22.3311 31.5644 21.7217C31.5644 21.6455 31.5721 21.5712 31.5868 21.4993ZM27.5716 21.7217C27.9864 22.3328 28.5627 22.4964 29.2389 22.4028C30.448 24.5015 32.4589 25.286 35.2717 24.7562C34.5579 24.7031 33.9128 24.5771 33.3364 24.3782C33.6971 24.2209 34.0564 23.976 34.4116 23.6414C35.6646 22.4614 36.206 21.1444 36.0115 19.745C36.8499 19.7257 37.5936 20.0648 38.1551 21.032C37.6211 16.0912 34.5635 18.0921 31.7105 19.959C30.1033 21.0107 28.5611 22.0199 27.5716 21.7217ZM27.0224 19.6527C27.0224 20.4218 27.4343 21.032 28.1208 21.17C27.4343 21.3079 26.6104 20.7562 27.0224 19.6527ZM39.5441 6.89655C39.5441 9.59882 33.7492 12.1379 26.5 12.1379C19.2509 12.1379 13.456 9.59882 13.456 6.89655C13.456 4.19428 19.2509 1.65517 26.5 1.65517C33.7492 1.65517 39.5441 4.19428 39.5441 6.89655Z" fill="#1D1D1F"/>
<ellipse cx="26.5002" cy="6.89632" rx="6.45337" ry="2.75862" fill="#FF6633"/>
</svg>
