<svg width="164" height="38" viewBox="0 0 164 38" fill="none" xmlns="http://www.w3.org/2000/svg">
<path fill-rule="evenodd" clip-rule="evenodd" d="M23.8658 27.0036H23.2357C23.2357 26.8626 23.0224 26.7182 22.5962 26.5706C21.5331 25.4157 21.0016 22.415 21.0016 17.568C20.9359 17.568 20.9034 17.424 20.9034 17.135C20.9034 17.0613 20.9359 17.0242 21.0016 17.0242L20.9034 16.4808V15.5035C20.9034 15.4363 20.9359 15.4031 21.0016 15.4031C20.9359 15.2621 20.9034 15.1513 20.9034 15.0705L21.0016 12.4727H21.1099C21.1099 12.3989 21.0741 12.3618 21.0016 12.3618C21.0933 11.3819 21.1658 10.8045 21.2183 10.6294C21.2183 10.5557 21.182 10.519 21.1099 10.519C21.1099 10.4448 21.1462 10.3374 21.2183 10.1969C21.2904 8.37115 21.3262 6.92425 21.3262 5.85665C21.3262 4.67512 21.1854 3.15446 20.9034 1.2951C21.2115 0.717654 21.5297 0.428711 21.8578 0.428711C22.2647 0.428711 22.5109 0.610282 22.5962 0.972552C23.1145 1.09389 23.5735 1.45616 23.9741 2.06067C23.9741 2.2549 24.0462 2.46964 24.1904 2.7049L24.3973 2.60408H24.5057C24.6435 3.59093 24.7121 4.13128 24.7121 4.22512H24.9289V4.01387C25.2305 4.01387 25.4075 4.51712 25.46 5.52449C25.5585 5.52449 25.6997 6.03124 25.8832 7.04472C25.9557 7.04472 25.9915 7.08182 25.9915 7.15558C25.9915 7.22934 25.9557 7.26644 25.8832 7.26644L26.1984 9.5422C26.1263 9.93196 26.0901 10.2571 26.0901 10.519V11.7071C26.0901 11.8751 26.0572 12.0231 25.9915 12.1505C26.0572 12.2845 26.0901 12.3919 26.0901 12.4727C25.8341 15.1443 25.6242 16.4808 25.46 16.4808L25.5683 17.2459V19.1991C25.5683 19.3601 25.5325 19.5046 25.46 19.6321C25.5325 19.76 25.5683 19.904 25.5683 20.0655V20.1759C25.5683 20.3173 25.4962 20.3876 25.352 20.3876C25.352 20.3138 25.3158 20.2767 25.2437 20.2767V20.3876L25.46 20.7097V20.9314L25.0372 24.4053L24.5057 25.2713C24.2693 25.2713 24.056 25.3786 23.8658 25.5938C23.8658 25.6671 23.9016 25.7042 23.9741 25.7042L23.8658 26.7924V27.0036ZM31.1483 30.8409C34.5321 32.0752 36.8587 32.7264 38.1275 32.7932C38.1275 32.7932 41.6956 33.5955 43.352 32.6269C46.3383 30.8811 45.5725 19.0462 45.5725 19.0462L45.8054 15.6631C45.8387 13.2804 45.6173 10.7284 45.1412 8.00786L45.0937 7.88166C44.8076 7.12263 43.9994 4.97875 44.0909 4.51436C44.2445 4.17653 44.3823 4.0194 44.5043 4.04472L44.8132 4.10801C44.8405 3.97008 44.8895 3.9081 44.9603 3.92251L45.4812 4.03031L45.5025 3.92163L46.2047 4.17871L46.1855 4.27779C45.9795 4.23502 45.8626 4.28608 45.834 4.43143L46.0678 4.3664L46.1642 4.38604L46.1429 4.49472L45.8779 4.76926C45.8575 4.87445 45.9394 5.00059 46.125 5.14855L46.337 5.1922C46.3745 5.00102 46.5055 4.88099 46.7294 4.83124L46.7486 4.73259L47.1637 4.8177C47.1415 4.92944 47.5225 5.37464 48.3066 6.15199C48.9252 6.92323 49.4989 8.03711 50.0292 9.49535C50.5403 11.6615 50.7472 12.995 50.6486 13.4952L50.5424 13.4729C50.6674 14.6767 50.7502 16.0939 50.7911 17.7254C50.6934 17.8494 50.6363 17.9502 50.6209 18.0296C50.8333 18.0729 50.8888 18.711 50.7868 19.9436L50.6401 20.1286L50.51 22.9879C50.2711 23.4868 50.1418 23.7889 50.1209 23.894L50.1009 24.5579L50.1973 24.5776L50.4311 24.5125L50.3884 24.7299L50.2417 24.9154C50.312 24.9298 50.3406 24.9734 50.3265 25.0459C50.2557 25.0315 50.2131 25.0599 50.199 25.1323L50.4069 25.1755C51.303 23.8747 51.9506 22.8261 52.3499 22.0296C52.3499 21.8751 52.5632 21.6237 52.9898 21.2745L54.5742 17.6994C54.5021 17.6597 54.4659 17.4043 54.4659 16.9342C54.9646 15.8535 55.2828 15.3132 55.4206 15.3132C55.9389 14.1583 56.7887 11.6979 57.97 7.93206L58.9243 5.65631C58.8522 5.51489 58.8163 5.40752 58.8163 5.33376C59.0787 5.33376 59.4656 5.00815 59.9775 4.35694H60.4105L60.5091 4.78992H60.6174C60.7616 4.78992 60.8337 4.71615 60.8337 4.56819L61.887 4.67905H62.1033C62.1033 4.89423 62.1724 5.0016 62.3102 5.0016H62.4185C62.4185 4.78642 62.4906 4.67905 62.6353 4.67905H62.7432C62.881 4.69913 62.9501 4.77289 62.9501 4.90078L63.1664 4.78992H63.2649V5.22289H63.4812C63.6194 5.22289 63.6881 5.14913 63.6881 5.0016V4.90078L63.5896 4.67905L64.1211 4.56819H64.328L64.2197 4.78992V5.11247C64.3639 5.11247 64.4359 5.2565 64.4359 5.54544H65.2827C65.2827 5.61921 65.2465 5.65631 65.1744 5.65631C65.2072 6.01858 65.3152 6.19971 65.499 6.19971V6.84394C65.5383 7.61649 65.7482 8.1599 66.1291 8.47547C66.1291 8.50907 66.2371 8.87178 66.4538 9.56315L66.6607 9.45228H66.769L67.1918 11.0834C67.4017 11.0834 67.5066 11.2981 67.5066 11.728C67.435 11.728 67.3987 11.7651 67.3987 11.8389L67.615 11.9498V11.8389C67.5429 11.8389 67.5066 11.8022 67.5066 11.728H67.8317C67.8381 12.1374 68.0484 12.9331 68.4618 14.1151C68.3893 14.511 68.3534 14.7995 68.3534 14.9806L68.5697 15.0915C68.5697 15.0177 68.606 14.9806 68.6781 14.9806C68.6781 15.1286 68.888 15.5982 69.3082 16.3904C71.4932 16.1757 72.802 16.0683 73.235 16.0683V16.29H73.0183L73.1267 16.8238L71.0107 17.4781L71.1093 17.6994C71.1093 18.042 70.7944 18.2568 70.1643 18.344V18.4549H70.3708V18.6766L70.1643 18.9987V19.21C70.7287 21.0427 71.1878 22.6708 71.5423 24.0941C71.5423 24.2085 71.6114 24.3525 71.7487 24.5271V24.6379C71.7487 24.7117 71.7129 24.7484 71.6404 24.7484L72.5955 27.5684C72.5298 27.5684 72.497 27.6051 72.497 27.6788C72.7986 27.6788 73.1139 28.7966 73.4419 31.0322C73.2056 31.0322 73.0315 31.2134 72.9202 31.5756H72.2803C72.2803 31.7973 72.1032 31.9082 71.7487 31.9082C71.4996 31.6599 70.8631 31.3679 69.8397 31.0322C69.8397 30.9183 69.3111 30.7031 68.2549 30.388C68.2549 30.3072 68.0416 30.1257 67.615 29.8441V29.6224L68.3534 29.7333H68.6781C68.8159 29.7333 68.8845 29.663 68.8845 29.5216C68.8845 29.2933 68.2156 27.5208 66.877 24.205C66.877 23.7615 66.5225 22.6407 65.8139 20.8415C64.456 21.278 62.9731 21.6036 61.3653 21.8183C61.3653 21.7441 61.3294 21.7075 61.2573 21.7075C61.2573 21.9222 61.044 22.0663 60.6174 22.1405C59.4166 22.4224 58.8163 22.8218 58.8163 23.3386C58.3701 24.789 57.9469 25.7989 57.5463 26.3698V26.702C57.7567 26.702 57.8616 26.7727 57.8616 26.9137V27.0246L57.6547 26.9137H57.4384C57.2285 27.4776 57.1236 27.8399 57.1236 28.0009L56.9069 27.8905C56.9069 28.0786 56.6936 28.2964 56.267 28.5448C56.267 28.6792 55.88 29.3304 55.1058 30.4984L54.889 30.5992H54.6826L54.2594 30.2771H54.151C54.0132 30.2972 53.9445 30.371 53.9445 30.4984C54.0098 30.6324 54.0427 30.7398 54.0427 30.8205L53.8362 30.9314C53.744 30.8576 53.567 30.8205 53.3046 30.8205C53.3046 31.0353 53.1634 31.1426 52.8815 31.1426L51.1789 29.955C50.7428 29.955 50.3181 29.4316 49.9043 28.3851C49.8694 28.8582 49.7573 29.5762 49.568 30.5393L49.4012 31.3878C49.3044 31.8819 49.1884 32.1145 49.0531 32.087L48.9499 33.1747L48.8258 33.8067C48.4461 34.9887 47.9807 35.7045 47.4299 35.9537C47.2836 36.0702 47.0208 36.1588 46.6458 36.2213C46.6374 36.2238 46.6298 36.2267 46.622 36.2297L46.6084 36.2348L46.6006 36.2374C46.4434 36.3698 46.4301 36.4121 46.4149 36.4605C46.4017 36.5025 46.387 36.5491 46.2751 36.6634C46.1941 36.6996 46.0076 36.7184 45.721 36.721V36.7236C45.5469 36.8022 45.3259 36.8214 45.0576 36.7808C44.7364 37.1671 44.4885 37.3997 44.3145 37.4779L43.2659 37.4661C42.3116 37.5804 41.1235 37.6018 39.702 37.5302C38.6087 36.9877 37.3135 36.5848 35.8161 36.3199C35.0713 35.7385 34.4084 35.4465 33.8265 35.4443C33.6865 35.1187 32.6904 34.4195 30.8386 33.3462C30.2208 32.9936 29.8488 32.8452 29.7226 32.9023C29.2563 32.4008 28.9329 32.1905 28.7525 32.2716L28.5823 31.8753C30.3492 32.5837 31.2989 32.908 31.4307 32.8482L31.3872 32.7474L30.5003 32.3101L30.4606 32.218L30.56 32.1734C30.5783 32.2167 31.141 32.4414 32.2485 32.8491C33.3551 33.2563 34.2893 33.461 35.0504 33.4632C35.6673 33.5819 36.0631 33.6016 36.2372 33.523L36.3362 33.4785C36.4445 33.43 36.4795 33.3371 36.442 33.2C33.8388 32.5305 32.4558 32.0054 32.2916 31.6248L32.1461 31.8112C31.9481 31.9006 31.7498 31.7147 31.5514 31.2538L31.3624 31.3389L31.4456 31.5323L31.3462 31.5772C31.2302 31.307 31.0834 31.0574 30.9064 30.8291L31.1048 30.7401L31.1483 30.8409ZM50.272 25.3706L50.2766 25.364C50.2726 25.3635 50.2685 25.3628 50.2643 25.3619C50.266 25.3634 50.2676 25.365 50.2692 25.3669L50.272 25.3706ZM12.6073 28.67C12.6073 29.1733 13.2438 29.4618 14.5168 29.5356C15.7898 29.4753 16.4263 29.2235 16.4263 28.7809C17.4825 27.2563 18.0107 26.0617 18.0107 25.1957C18.5094 22.181 18.8276 19.9393 18.9654 18.4689V18.368L18.5426 18.5793V18.368L18.6506 17.8246C18.5785 17.8246 18.5426 17.7875 18.5426 17.7138H18.6506C18.6506 14.2831 18.7918 11.8228 19.0738 10.3322V10.2314H18.8673C18.8673 10.5208 18.7589 10.6648 18.5426 10.6648C18.5426 10.7386 18.5785 10.8459 18.6506 10.9869L18.5426 12.0746C18.5426 12.1484 18.5785 12.2557 18.6506 12.3967C18.6506 12.4906 18.5094 12.8162 18.2274 13.3735H18.119C18.119 12.6486 18.0141 12.2858 17.8042 12.2858C17.8042 12.1449 17.9091 12.0746 18.119 12.0746V11.309C18.119 10.8394 18.1553 10.1179 18.2274 9.14414H18.0107C18.0107 9.30519 17.9782 9.44923 17.9125 9.57712L18.0107 9.7984C17.8272 9.82547 17.686 10.0035 17.5875 10.3322L17.6958 10.7757C17.6958 10.8429 17.66 10.876 17.5875 10.876C17.5875 11.1445 17.6237 11.3256 17.6958 11.4199C17.6237 11.4199 17.5188 11.6748 17.381 12.1855C17.4531 12.3059 17.4894 12.4504 17.4894 12.618V12.7193L17.2726 13.051L17.381 13.2627H17.2726C17.2726 13.5045 17.3089 13.686 17.381 13.8065C17.3349 14.2229 17.23 14.5481 17.0662 14.7833L17.1647 15.0046H17.0662C17.0662 15.5821 16.9216 15.8706 16.6327 15.8706V15.9814L16.7411 16.6261C16.387 17.2773 16.2096 17.9652 16.2096 18.6902H16.0031C16.0031 18.6164 16.0389 18.5793 16.1114 18.5793C16.1114 18.3982 16.0752 18.1097 16.0031 17.7138L16.2096 17.3917L16.1114 17.1699C16.2492 17.1699 16.3179 16.9888 16.3179 16.6261L16.2096 16.4144C16.2821 16.4144 16.3904 16.2333 16.5346 15.8706C16.4625 15.7431 16.4263 15.5987 16.4263 15.4376C16.4263 15.3438 16.4954 14.9444 16.6327 14.2395V13.9174L16.5346 13.2627L16.6327 13.051L16.5346 12.5071L16.7411 11.9637C16.669 11.8363 16.6327 11.6918 16.6327 11.5308L16.8495 11.2086H16.6327L16.9578 8.82202L16.8495 8.6003C17.3349 7.69419 17.9714 7.08007 18.7589 6.75752V6.53623C18.7589 6.36819 18.4407 6.22415 17.8042 6.10282C17.1481 6.52576 16.6528 7.1067 16.3179 7.8452V8.05645H16.5346V8.16732H16.3179L16.4263 8.38904C16.4263 8.69763 16.3542 8.98657 16.2096 9.255L16.3179 9.46669C16.1997 10.2453 16.059 10.715 15.8947 10.876L16.0031 11.0978C15.931 11.0978 15.8947 11.1349 15.8947 11.2086V11.309H16.0031V12.5071C16.0031 12.7223 16.0722 12.8297 16.2096 12.8297C16.0982 12.9912 15.9933 13.3164 15.8947 13.8065C15.8947 15.4712 15.7535 16.304 15.4715 16.304V16.5152H15.6784C15.6784 16.5894 15.6456 16.6261 15.5799 16.6261L15.6784 17.1699C15.6059 17.1699 15.501 17.2066 15.3632 17.2808C15.4353 17.7775 15.5078 18.1031 15.5799 18.2572C15.4421 18.3314 15.3337 18.368 15.2548 18.368V19.4457C15.1175 19.4457 15.0483 19.5902 15.0483 19.8787H14.94C14.8022 19.8787 14.6973 19.6268 14.6252 19.1236C14.763 18.66 14.8679 18.0093 14.94 17.1699C14.8679 17.0425 14.8316 16.898 14.8316 16.737C14.8316 16.2267 14.9042 15.8274 15.0483 15.5389C14.9763 15.4044 14.94 15.297 14.94 15.2163C14.7105 15.2163 14.5334 16.0858 14.4089 17.8246C14.481 17.8246 14.5168 17.8578 14.5168 17.925C13.9524 21.9868 13.3163 24.4101 12.6073 25.1957C12.4764 24.5441 12.3352 24.2185 12.1842 24.2185C10.9931 19.7506 8.95223 15.8665 7.35769 12.8318C6.58046 11.3525 5.90926 10.0751 5.49419 9.03022C5.06802 8.50602 4.85472 8.18041 4.85472 8.05296H4.64782V8.16383L4.74636 8.38555C4.5625 8.16383 4.28051 8.05296 3.89999 8.05296V7.95257H4.11627V7.73085C3.55188 7.73085 3.2699 7.58638 3.2699 7.29787L2.97213 7.30835C2.53913 7.67062 2.22088 7.85175 2.0174 7.85175C2.0174 7.50301 1.80452 7.17697 1.37792 6.87537C1.16761 6.98274 1.06266 7.09011 1.06266 7.19748C0.984169 7.19748 0.875812 7.16038 0.73802 7.08662C0.619851 7.08662 0.551168 7.16038 0.531545 7.30835L0.639475 7.52003C0.567379 7.52003 0.531545 7.5567 0.531545 7.63046L0.314832 7.52003H0.216713C0.0917192 7.52003 0.0196236 7.5938 0 7.74089V7.85175L0.216713 8.60728C0.898848 8.60728 1.67612 10.8861 2.54894 15.445H2.44058C2.51311 16.1429 2.61762 16.6833 2.75584 17.0661H2.64749C2.64749 17.3074 2.68332 17.4886 2.75584 17.6099L2.64749 18.1537C2.71958 18.7844 2.75584 19.1471 2.75584 19.241C2.68332 19.7512 2.64749 20.0402 2.64749 20.1069C2.79168 20.6844 2.8642 21.3526 2.8642 22.1108C2.8642 22.7554 2.79168 23.823 2.64749 25.3132C2.64749 26.7435 2.93288 27.7199 3.50367 28.2436V28.0219L3.39532 27.8006C3.46784 27.8006 3.50367 27.767 3.50367 27.6998V27.5889H3.28739V27.4785C3.35948 27.4785 3.46443 27.4414 3.60222 27.3676C3.95672 28.0455 4.13376 28.6264 4.13376 29.1096C4.84235 29.2305 5.19643 29.519 5.19643 29.976H5.30478C5.30478 29.7542 5.33763 29.5024 5.40333 29.2204H5.62004C5.62004 29.9389 5.83292 30.2981 6.25952 30.2981L7.42072 29.8651C7.34863 29.3479 7.31279 29.0594 7.31279 28.9991C7.31279 28.784 7.38489 28.6766 7.52908 28.6766L7.42072 28.1327V27.3676L7.31279 27.1564H7.42072C7.42072 27.035 7.38489 26.6021 7.31279 25.857L7.10589 25.9578C7.24368 25.3804 7.31279 25.0212 7.31279 24.8802V24.2259L7.21425 24.0042C7.27995 24.0042 7.31279 23.9505 7.31279 23.8431C7.31279 23.1312 7.27995 22.5005 7.21425 21.9497C7.25776 21.6861 7.39555 21.7206 7.6272 22.0536C8.74276 24.7728 9.6254 26.3266 10.2751 26.716C10.8391 27.0586 11.1215 27.3838 11.1215 27.6928C11.6855 28.1829 11.9679 28.4715 11.9679 28.5592C12.04 28.5592 12.0758 28.5221 12.0758 28.4483C12.2533 28.5958 12.4303 28.67 12.6073 28.67ZM40.3635 29.7852C40.3362 29.6425 40.1608 29.5788 39.8379 29.5945C39.8673 29.749 39.5747 29.9061 38.9599 30.0672C38.6707 29.7237 38.3337 29.4919 37.948 29.3719C37.931 29.2828 37.8171 29.2069 37.6059 29.1441L37.5189 29.1619L37.5564 29.3579C37.021 28.959 36.745 28.7154 36.728 28.6264C35.4644 26.7928 34.7485 25.4393 34.5809 24.565C34.3377 23.6135 34.0724 22.7345 33.7848 21.9275L33.8446 21.721L33.3207 20.0293L33.4167 20.01L33.2832 19.8333L32.9508 18.1027L32.6804 17.166L32.2969 17.2433C32.3267 17.3978 32.2627 17.7408 32.1053 18.2729L32.2969 18.2345C32.2491 18.9913 32.2422 19.4588 32.2768 19.6373C32.3348 19.6255 32.3702 19.6521 32.3826 19.7181C32.1791 19.7586 32.1407 20.2326 32.2666 21.1396L32.4547 21.6023C32.4223 21.9667 32.3463 22.2474 32.2273 22.4447C32.2397 22.5097 32.2781 22.5363 32.3421 22.5232C32.3899 23.4647 32.3758 24.0662 32.2994 24.3289C32.3805 24.4363 32.4274 24.5253 32.4415 24.5965C32.2542 25.005 32.1441 25.9565 32.1113 27.451C32.0486 28.131 31.985 28.4771 31.921 28.4898L31.6424 28.5457C31.5051 29.3082 31.2909 29.7189 31.0004 29.7769C30.8584 29.5399 30.741 29.4308 30.648 29.4496L30.4561 29.488L30.0026 29.6722C29.9476 29.3867 29.6293 29.2532 29.0474 29.2711L29.0508 28.7704C28.989 28.4492 28.8337 28.3139 28.5837 28.3641L28.472 27.7844C28.4118 27.4689 28.2245 27.3432 27.911 27.4065C27.6324 25.9556 27.6738 23.4525 28.0351 19.897C28.0227 19.8311 27.9843 19.8053 27.9204 19.818L27.9186 18.8181L28.1294 18.8778L28.018 18.2978C28.2326 18.2546 28.3026 17.9412 28.2267 17.3572L28.0982 16.6885C28.2433 16.6593 28.2936 16.4175 28.2488 15.9635L28.0863 15.5886C28.1076 15.387 28.1507 15.2796 28.2143 15.2661C28.2019 15.201 28.1635 15.1744 28.0995 15.1875C28.062 14.6454 28.0722 14.1801 28.1307 13.7917C28.0428 13.6799 27.992 13.5883 27.9779 13.5171C28.0889 13.4329 28.1759 13.3844 28.2399 13.3718C28.1452 13.2243 28.0223 12.9152 27.8721 12.4452C27.9532 12.4286 28.0411 12.2103 28.1354 11.79C28.0475 11.6783 27.9976 11.5897 27.9848 11.5238L28.0808 11.5046L27.9472 11.3278C28.0121 9.62294 27.9434 7.74045 27.7412 5.68162C27.9438 5.5114 28.1819 5.39879 28.4549 5.3438L28.7339 5.28749C28.7979 5.27483 28.8363 5.30102 28.8486 5.36649L29.0218 5.22988C29.7189 5.49743 30.1161 5.88371 30.2129 6.38914L30.3857 6.25253L30.6647 6.19622L30.6839 6.29486L30.6323 6.49913L31.5652 6.31189L32.7136 6.68288L32.8369 6.85311L32.5579 6.90898L32.5767 7.00674C32.8335 7.65316 33.2187 8.30742 33.7324 8.97042C34.5416 10.1349 35.0877 11.4548 35.3705 12.9296L35.629 14.2766C35.821 14.2377 36.2007 15.1927 36.7676 17.1411L36.8602 17.623C36.873 17.688 36.847 17.7273 36.783 17.74L36.9152 17.9084C36.972 18.2057 36.94 18.7124 36.8175 19.4282C37.1473 19.7944 37.3644 20.2479 37.4681 20.7891L37.5061 20.9851L37.6887 20.9485C37.8166 20.9227 37.8939 20.4749 37.9199 19.6054L38.0159 19.5862L37.8823 19.409L37.8273 19.1236C38.0824 18.5968 38.1451 17.053 38.0154 14.4913C38.1242 14.1793 38.2002 13.5682 38.2428 12.6582C38.5329 11.3396 38.8238 10.4815 39.1156 10.0834L39.2116 10.0642L39.2492 10.2606L39.1894 10.4666L39.3998 10.5264L39.4957 10.5072L39.477 10.409L39.285 10.4474L39.3452 10.2414L39.3264 10.1428C39.3136 10.0777 39.2756 10.0511 39.2116 10.0642C39.2539 9.93808 39.2611 9.80408 39.2338 9.66179L39.4168 9.62469L39.4219 10.1236C39.6254 10.0825 39.7952 9.6164 39.9322 8.72425L39.913 8.62605L40.1152 8.68759L40.0964 8.58938C40.0324 8.60248 39.994 8.57585 39.9812 8.51082C40.0802 8.49074 40.1962 8.40301 40.3289 8.24632C40.3404 8.30568 40.3754 8.32968 40.4334 8.3179C40.7278 7.46198 41.0609 6.99671 41.4329 6.92207L41.5289 6.90287L41.6023 7.28652L40.9419 8.4196L40.7397 8.35806L40.4522 8.41611L40.471 8.51431L40.8459 8.4388L40.8835 8.63521C40.5175 9.08521 40.3421 9.35233 40.3583 9.43526C40.1484 10.3855 39.9049 12.4971 39.628 15.7697L39.6468 15.868L39.7338 15.8505C39.9812 15.1897 40.1088 14.3303 40.1173 13.2723L40.4253 11.8118L40.5296 11.7907C40.5415 11.5234 40.5968 11.38 40.6963 11.3601L40.7918 11.3405C40.8226 11.5011 40.9177 11.649 41.0764 11.7839L41.0996 11.9054C41.1428 11.8798 41.1804 11.8638 41.2124 11.8572L41.2316 11.9554C41.1365 12.4683 41.0644 13.113 41.014 13.8886L41.11 13.8694C41.2555 13.8406 41.3459 13.291 41.3822 12.2217C41.7597 12.1457 41.9918 11.4998 42.0784 10.2846L42.2704 10.2458C42.2964 10.3828 42.2516 10.8241 42.1351 11.57C42.2921 11.5382 42.4094 11.6473 42.4875 11.8974L42.4845 12.3985C42.5848 12.5757 42.6671 12.6582 42.7311 12.6451L42.784 14.4315C42.822 14.6275 42.9337 14.7069 43.1197 14.6698L43.1368 14.7589C43.1824 17.0407 43.1048 19.6836 42.903 22.6887C42.6948 23.8052 42.2891 25.4179 41.6863 27.5274C41.2222 28.8189 40.9581 29.471 40.8941 29.4841L40.3635 29.7852ZM40.7009 12.2566L40.6485 11.9837C40.6817 11.9837 40.7153 11.9862 40.7494 11.9914L40.7969 12.2374L40.7009 12.2566ZM40.6777 11.103L40.7737 11.0838C40.737 10.8939 40.7801 10.7866 40.9021 10.7617L40.8453 10.4675L40.7583 10.485C40.7963 10.6809 40.7191 10.7988 40.5271 10.8372C40.615 10.9494 40.6653 11.038 40.6777 11.103ZM14.8193 15.033H14.9276C14.9276 14.7379 14.8918 14.449 14.8193 14.167L14.9276 13.6232V13.5228H14.7211C14.7211 13.7175 14.6486 13.9322 14.5044 14.167L14.6128 14.3888C14.5407 14.3888 14.5044 14.4254 14.5044 14.4996V14.7109C14.6162 14.9256 14.7211 15.033 14.8193 15.033ZM58.0177 12.4072C58.1688 12.3736 58.3095 12.1924 58.4409 11.8633C58.3752 11.7359 58.3428 11.5914 58.3428 11.4304C58.5066 11.4304 58.8249 10.8158 59.2971 9.58759L59.1892 9.36586V9.255C59.5761 8.80544 59.786 8.19132 59.8188 7.41223H59.3957V7.63395H59.6124C58.5493 9.93677 58.0177 11.5277 58.0177 12.4072ZM38.906 23.4176C38.9069 23.7694 38.8429 24.1124 38.7145 24.4472C38.604 24.4695 38.528 24.4197 38.4862 24.2984L38.3941 23.8169L38.4901 23.7977L38.9073 21.9165C38.8949 21.8515 38.8446 21.7629 38.7567 21.6507C38.8557 21.6307 38.9679 21.5403 39.0937 21.3793L39.1129 21.477L38.9845 21.7996L39.022 21.9956L39.2051 21.9589L39.1505 21.673L39.2464 21.6542L39.3556 22.2247C39.1778 22.9955 39.0276 23.3931 38.906 23.4176ZM61.0039 18.3894C61.3648 18.3894 62.5329 18.1009 64.5076 17.5235V17.4131C64.5076 17.2581 64.0123 15.7043 63.0213 12.7502V12.6499C62.6869 13.0994 62.3328 13.8947 61.9587 15.0365C61.8008 16.0364 61.5188 17.0098 61.1123 17.9565H61.0039V18.3894ZM70.4907 23.7659V23.8767C70.2808 23.8767 69.9626 23.044 69.536 21.3793C69.8184 21.3793 69.9591 21.6342 69.9591 22.1448H70.1759L70.3823 22.034C70.3823 22.1077 70.4186 22.1448 70.4907 22.1448L70.3823 22.6882C70.4549 23.3194 70.4907 23.6786 70.4907 23.7659ZM39.269 19.2864C39.2225 19.0424 39.3117 18.66 39.5378 18.1393C39.5809 18.0193 39.5822 17.8521 39.5412 17.6383L39.5054 17.451L39.4094 17.4702C39.3279 17.4868 39.2277 17.97 39.1082 18.9202L38.8207 18.9782L38.8941 19.3615L38.9901 19.3423L39.0384 19.307C39.0358 19.5159 38.9634 19.9662 38.8207 20.6578L38.836 21.2566L38.8531 21.3461L38.9491 21.3264C39.0903 20.0201 39.1569 19.3427 39.1475 19.2951L39.1361 19.2358L39.165 19.2148C39.176 19.2737 39.211 19.2977 39.269 19.2864Z" fill="#1D1D1F"/>
<path fill-rule="evenodd" clip-rule="evenodd" d="M92.3176 30.0762L90.1832 29.8587L89.9759 29.9675C89.106 29.7504 88.4669 29.4311 88.0587 29.0099C87.1361 28.2523 86.6752 27.6864 86.6752 27.311C86.6752 27.2455 86.6028 26.9591 86.4576 26.4519V26.3534L86.5664 26.136C86.4743 26.136 86.2636 25.853 85.9342 25.2867V24.9704C85.9342 24.898 86.1809 24.684 86.6752 24.3283L86.5664 23.7954C87.8116 22.8738 88.6648 22.4127 89.1257 22.4127V22.5215C89.1257 22.8044 88.8755 23.3707 88.3748 24.22V24.3283C88.5264 24.3283 88.9184 24.434 89.5506 24.6446L91.3594 24.437V24.5457C91.8336 24.4734 92.2949 24.3647 92.7429 24.22L93.4839 24.3283C94.5115 24.1643 95.7896 23.5253 97.3183 22.4127C97.7531 22.0506 98.178 21.4843 98.593 20.7142C98.9485 20.3388 99.1263 19.9831 99.1263 19.6475C95.1801 18.7982 93.0522 18.2649 92.7429 18.0479C92.7429 18.1921 92.6701 18.2649 92.5253 18.2649C90.0286 17.6656 88.5757 17.0997 88.1671 16.5664C87.8642 16.5664 87.3305 16.2111 86.5664 15.4997C86.3818 15.48 85.9933 15.0189 85.4001 14.117C85.2292 14.117 85.0514 13.8705 84.8668 13.3761C84.5832 13.3761 84.4419 13.0208 84.4419 12.3098C84.4419 11.1249 84.794 10.0942 85.499 9.21881C85.9273 8.49454 86.4246 7.89227 86.9913 7.41156C87.3271 7.07597 87.5413 6.72325 87.6338 6.3547C88.7205 5.57136 89.36 5.17969 89.5506 5.17969C91.1517 5.34406 92.321 5.627 93.059 6.02852C94.6927 6.8979 95.5099 7.7142 95.5099 8.47785V9.32754H95.2923V9.43583L95.4011 9.65329L94.8674 9.75217C94.6365 9.75217 94.1063 9.46922 93.2762 8.90248C92.0507 9.40287 91.3067 9.75859 91.0429 9.96962C90.9838 10.3052 90.5224 10.7298 89.6594 11.2431C89.6594 11.3617 89.3039 11.7174 88.5924 12.3098C88.1641 12.9549 87.9499 13.3435 87.9499 13.4754C89.3728 14.1136 91.7149 14.7523 94.9758 15.3914C97.9278 16.1024 99.7358 16.8134 100.401 17.5244C102.536 18.5842 103.603 19.3975 103.603 19.9634H103.386C103.386 19.7789 102.997 19.4271 102.22 18.9065H102.002V19.0054C102.325 19.8748 102.822 20.4441 103.494 20.7142C103.494 20.8062 103.672 21.1256 104.028 21.6718C103.883 21.6919 103.81 21.7608 103.81 21.8794L103.919 22.8374C103.919 23.3776 103.494 23.8018 102.645 24.1117C102.645 24.342 102.325 24.6973 101.686 25.178C101.686 25.5337 101.116 26.0307 99.9765 26.6693C99.9765 26.8071 99.5152 27.2322 98.593 27.9432C98.3823 28.0288 98.2765 28.1375 98.2765 28.269H98.1681L97.9604 28.1607C97.9604 28.6739 97.2853 29.1713 95.9348 29.6516C95.9348 29.4345 95.862 29.3258 95.7172 29.3258C95.4868 29.6481 95.0979 29.8622 94.5513 29.9675L93.9088 29.8587H93.7011C93.543 29.8587 93.4017 29.8951 93.2762 29.9675L93.059 29.8587C92.9335 29.9315 92.7922 29.9675 92.6341 29.9675L92.4264 29.8587L92.3176 30.0762ZM112.863 28.9012H112.645C111.914 28.9012 111.417 28.7959 111.153 28.5853L110.728 28.694C110.616 28.694 110.405 28.5523 110.096 28.269L109.878 28.3678C109.384 28.2557 108.923 27.8311 108.495 27.0935L108.278 27.2022H108.07C106.581 25.978 105.836 25.1617 105.836 24.7533C104.631 22.2646 104.028 19.4271 104.028 16.2406C103.975 16.2406 103.867 15.2133 103.702 13.1595H103.81C103.666 12.7969 103.593 12.5504 103.593 12.4185C103.646 11.9905 103.718 11.7764 103.81 11.7764L103.168 8.6953C103.3 8.6953 103.409 8.37597 103.494 7.73731C103.778 7.73731 103.919 7.66497 103.919 7.52029V7.41156H104.028L104.344 7.62902C104.496 7.62902 104.707 7.41499 104.977 6.98693C105.056 6.98693 105.164 6.95055 105.303 6.87821V7.09566L105.836 6.98693C105.836 7.20439 105.869 7.31268 105.935 7.31268C106.034 7.24034 106.212 7.20439 106.469 7.20439C106.469 7.36833 106.683 7.47363 107.111 7.52029V7.62902L107.003 7.83619C107.148 7.83619 107.22 7.90854 107.22 8.05322H107.319C107.391 8.05322 107.678 7.98088 108.179 7.83619H108.495V8.58657L108.278 8.90248L108.603 9.11993L108.278 10.7102C108.304 10.8548 108.376 10.9272 108.495 10.9272C108.422 11.7567 108.386 12.3594 108.386 12.7344V12.8431L108.495 13.8996H108.386L108.495 14.117V14.2258C108.495 15.3648 108.6 17.4191 108.811 20.388H108.702C108.775 20.5528 108.92 21.1222 109.137 22.0968L109.028 22.6302C109.167 22.8605 109.236 23.0711 109.236 23.262L109.137 23.4794C109.486 23.4794 109.661 23.8347 109.661 24.5457C109.779 24.5457 109.924 24.7563 110.096 25.178C110.445 25.178 111.295 24.3283 112.645 22.6302C113.429 21.3066 114.21 19.035 114.987 15.816V14.3242L114.879 13.5837H114.987L114.879 13.3761C114.879 13.2121 114.915 13.067 114.987 12.942C114.777 10.1635 114.671 8.49797 114.671 7.94492C114.928 7.60248 115.248 7.3191 115.63 7.09566V6.77933H115.837V6.98693H116.153C116.516 6.49296 116.835 6.24597 117.112 6.24597L117.221 6.45358L117.438 6.3547H117.646V6.6706H117.754L118.288 6.5623L118.93 6.98693V7.31268H119.355V7.09566C119.494 7.168 119.599 7.20439 119.672 7.20439C119.81 7.13162 119.915 7.09566 119.988 7.09566C120.488 7.55625 120.738 8.12256 120.738 8.79375C120.666 8.79375 120.63 8.83014 120.63 8.90248C120.768 8.92902 120.837 9.00136 120.837 9.11993C120.627 9.28473 120.521 9.53129 120.521 9.86089H120.413L120.205 9.21881C120.06 9.24492 119.988 9.31726 119.988 9.43583V10.9272C119.988 11.5988 119.951 12.4151 119.879 13.3761L119.988 13.8996C119.546 16.7701 119.122 18.6865 118.713 19.6475C118.64 19.6475 118.604 19.6839 118.604 19.7562V20.7142L118.713 21.7711C118.429 21.7711 118.288 22.0575 118.288 22.6302H118.179C118.179 22.8605 118.321 23.6404 118.604 24.9704H118.495L118.604 25.178V25.7113C118.604 25.8693 118.568 26.011 118.495 26.136C118.568 26.2742 118.604 26.3795 118.604 26.4519C118.446 26.4519 118.268 26.0996 118.07 25.3954H117.971C117.971 25.4609 117.935 25.4939 117.863 25.4939C118.001 26.2447 118.179 26.9916 118.397 27.7356C118.324 27.8743 118.288 27.9796 118.288 28.0519C118.176 28.0519 117.929 27.3075 117.547 25.8201H117.438L117.329 26.0272V26.136H117.547V26.7776H117.754C117.754 26.8504 117.718 26.8863 117.646 26.8863L117.754 27.0935V27.4098L117.547 27.311C117.547 27.3769 117.511 27.4098 117.438 27.4098C117.221 26.9882 116.97 26.2083 116.687 25.0692H116.48C116.381 25.0692 116.239 25.3886 116.055 26.0272C115.916 26.0272 115.56 26.4189 114.987 27.2022L115.096 27.4098C114.905 27.6466 114.408 27.8606 113.604 28.0519C113.11 28.4603 112.863 28.7432 112.863 28.9012ZM119.138 30.6096H118.822C118.749 30.0895 118.676 29.7701 118.604 29.6516C118.676 29.5334 118.713 29.3558 118.713 29.1186H118.93V29.5428L118.822 29.7504C118.96 29.8228 119.065 29.8587 119.138 29.8587V29.9675L118.93 30.2838C119.068 30.3099 119.138 30.3827 119.138 30.5008V30.6096ZM144.08 32.8209L143.655 32.6137C143.517 32.6796 143.408 32.7126 143.329 32.7126L142.904 32.6137C142.766 32.6796 142.661 32.7126 142.588 32.7126C142.588 32.5285 142.338 32.3868 141.837 32.288C141.679 31.8727 141.395 31.5209 140.987 31.2311C140.565 30.4674 140.246 29.4042 140.029 28.0412L140.137 27.8238C140.065 27.6855 140.029 27.5802 140.029 27.5079H140.137C140.012 27.2776 139.87 26.2836 139.712 24.5252H139.821C139.689 24.0976 139.334 20.766 138.754 14.5314C138.681 14.5314 138.576 13.9621 138.437 12.823C138.437 12.7507 138.474 12.645 138.546 12.5067C138.546 11.7696 138.118 10.9529 137.262 10.0578C137.262 10.0111 137.084 9.51417 136.728 8.56603C136.807 8.25012 137.057 8.00356 137.479 7.82592H137.588V8.0331C138.088 7.89484 138.371 7.82592 138.437 7.82592H138.546V8.46757H138.754L138.645 8.67475V8.78348C138.79 8.78348 138.862 8.81986 138.862 8.8922L139.712 8.35885H139.821V8.46757C139.749 8.59899 139.712 8.70429 139.712 8.78348C139.785 8.78348 139.821 8.81986 139.821 8.8922C139.959 8.81986 140.065 8.78348 140.137 8.78348C140.756 8.82329 141.395 9.38918 142.054 10.4824C142.054 10.9499 142.301 11.6609 142.796 12.6154C143.296 17.1648 143.547 19.6471 143.547 20.0619H143.655C145.269 19.8444 146.475 19.7357 147.272 19.7357H147.697C148.336 19.7357 148.656 19.3474 148.656 18.5705H148.764L148.656 18.3531V18.2546C149.011 18.2546 149.367 16.1242 149.723 11.8646C149.578 11.8646 149.505 11.7957 149.505 11.6574V11.0154C149.888 11.0154 150.171 10.9101 150.355 10.6995H150.573L150.672 11.2328C150.605 11.2328 150.573 11.2658 150.573 11.3313L150.78 11.44C150.78 11.3676 150.817 11.3313 150.889 11.3313L150.78 11.1241V11.0154C151.248 11.0154 151.531 10.8018 151.63 10.3737H151.848C151.848 10.4525 151.884 10.5612 151.956 10.6995L152.164 10.5912H152.272C152.272 10.8279 152.308 11.0055 152.381 11.1241L152.589 11.0154C152.734 11.0355 152.806 11.1078 152.806 11.2328V11.3313H152.589V11.44H152.915L153.013 11.2328C152.948 11.0941 152.915 10.9862 152.915 10.9071H153.122C153.551 11.282 153.765 11.6014 153.765 11.8646H154.081L154.298 11.7559L154.19 11.5487C154.209 11.404 154.279 11.3313 154.397 11.3313C154.924 11.3313 155.211 11.44 155.257 11.6574V11.8646C155.257 12.0097 155.148 12.0821 154.931 12.0821C155.214 12.8196 155.356 13.2802 155.356 13.4647C155.006 14.8738 154.832 16.6447 154.832 18.7781L155.039 18.8869C155.039 18.8141 155.075 18.7781 155.148 18.7781C155.148 18.9228 155.184 18.9947 155.257 18.9947L155.682 18.7781V18.8869C155.682 19.0975 155.398 19.2387 154.832 19.3111V19.9531H155.573L156.957 19.6368C156.957 19.7032 156.993 19.7357 157.065 19.7357C157.065 19.5978 157.349 19.4925 157.915 19.4198V19.5285C157.915 19.6205 157.454 19.8675 156.532 20.269C156.532 20.552 155.893 20.8713 154.615 21.227V21.444L155.148 21.3358C155.221 21.3358 155.257 21.3717 155.257 21.444C155.395 21.3717 155.501 21.3358 155.573 21.3358H155.79V21.444C154.934 21.5494 154.506 21.691 154.506 21.8687C154.506 22.0797 154.469 22.185 154.397 22.185L154.506 22.402C154.367 23.0013 154.298 23.3536 154.298 23.4589L154.397 24.101C154.397 24.7529 154.186 26.3821 153.765 28.9894H153.547V28.7822H153.449V30.1644H153.122L152.697 29.8485C152.697 29.967 152.52 30.2864 152.164 30.8065C152.164 31.5637 151.953 31.9883 151.531 32.0808C151.531 32.2914 151.176 32.3967 150.464 32.3967H150.355C150.355 32.1861 150.25 32.0808 150.039 32.0808H149.93V31.2311C149.93 31.0667 149.894 30.925 149.822 30.8065C149.822 30.7341 149.858 30.6977 149.93 30.6977C149.93 30.5531 149.894 30.4803 149.822 30.4803C149.986 27.7874 150.128 26.4416 150.247 26.4416L150.148 26.2241C150.286 25.7366 150.355 25.3124 150.355 24.9502V24.101L150.464 23.5676C150.293 23.4294 150.151 23.3604 150.039 23.3604C148.991 23.5711 148.28 23.7453 147.904 23.8835V24.5252C147.72 24.5252 147.473 24.9169 147.163 25.7006L146.205 27.8238C146.066 27.8961 145.961 27.9325 145.889 27.9325V28.7822C145.889 28.953 145.711 29.2723 145.355 29.7397C145.355 30.161 145.283 30.372 145.138 30.372L145.246 30.589C144.679 31.1947 144.396 31.5504 144.396 31.6561V32.1891L144.505 32.3967C144.268 32.3967 144.126 32.5379 144.08 32.8209ZM149.189 18.7807C149.525 17.708 149.772 17.1382 149.93 17.0723C149.858 16.7894 149.753 16.5424 149.614 16.3318L149.822 16.0159H149.723C149.604 16.0159 149.459 16.2629 149.288 16.7564L149.397 17.2898C149.364 17.5727 149.258 17.7144 149.081 17.7144V17.8227L149.189 18.0307H148.972V18.5637C148.998 18.7088 149.071 18.7807 149.189 18.7807ZM151.848 27.5014C152.019 27.5014 152.124 27.1453 152.164 26.4343C152.098 26.2965 152.065 26.1912 152.065 26.1184H152.272V25.6942C152.272 25.5491 152.203 25.4768 152.065 25.4768L152.164 24.9434V23.8865C152.164 23.8142 152.2 23.7778 152.272 23.7778L152.164 23.5608C152.164 23.4884 152.2 23.3827 152.272 23.2449L152.065 22.2869C152.131 22.2869 152.164 22.2505 152.164 22.1782H151.956V22.929C151.956 23.0869 151.92 23.2282 151.848 23.3532C151.848 23.4259 151.884 23.4619 151.956 23.4619L151.848 23.9854V24.2024L151.956 24.9434H151.848L151.956 25.1608V25.368C151.956 25.5127 151.884 25.5855 151.739 25.5855C151.884 25.8158 151.956 26.0298 151.956 26.2271V26.7506L151.848 27.5014ZM151.106 28.4594C151.245 27.9261 151.314 27.6068 151.314 27.5014C151.314 27.4291 151.277 27.3927 151.205 27.3927L151.314 26.8594V25.6942L151.205 24.41H151.314L151.205 24.2024V23.4619C151.205 23.3896 151.241 23.3532 151.314 23.3532C151.241 23.2611 151.205 23.0107 151.205 22.6028C151.067 22.6293 150.998 22.7017 150.998 22.8202V23.5608C150.998 23.9691 150.961 24.2196 150.889 24.3112C150.961 24.6934 150.998 25.0123 150.998 25.2696V28.4594H151.106ZM146.314 25.7927C146.314 25.5624 146.561 25.0684 147.055 24.3112L147.588 23.2449V23.0274H147.48C147.071 23.482 146.752 24.0513 146.521 24.7362C146.475 24.7362 146.333 24.9139 146.096 25.2696V25.7927H146.314ZM143.863 27.5014C144.285 27.04 145.065 25.8684 146.205 23.9854C146.205 23.9195 146.241 23.8865 146.314 23.8865V24.2024H146.521C146.521 23.9062 146.594 23.5509 146.738 23.1361H146.63V23.2449C146.557 23.2449 146.521 23.2085 146.521 23.1361C145.355 23.5638 144.683 23.7778 144.505 23.7778C144.024 23.5672 143.741 23.4619 143.655 23.4619V23.7778C143.655 23.9358 143.688 24.0774 143.754 24.2024C143.754 24.2748 143.721 24.3112 143.655 24.3112C143.721 24.6339 143.79 25.6972 143.863 27.5014ZM160.666 32.0945H160.033C160.033 31.9562 159.819 31.8145 159.391 31.6698C158.323 30.5372 157.79 27.5943 157.79 22.8408C157.724 22.8408 157.691 22.6995 157.691 22.4162C157.691 22.3438 157.724 22.3074 157.79 22.3074L157.691 21.7745V20.8161C157.691 20.7506 157.724 20.7176 157.79 20.7176C157.724 20.5794 157.691 20.4707 157.691 20.3915L157.79 17.8437H157.899C157.899 17.7713 157.863 17.735 157.79 17.735C157.882 16.774 157.955 16.2077 158.007 16.0364C158.007 15.9637 157.971 15.9277 157.899 15.9277C157.899 15.8554 157.935 15.7496 158.007 15.6118C158.08 13.8213 158.116 12.4023 158.116 11.3552C158.116 10.1965 157.974 8.70514 157.691 6.88163C158.001 6.31532 158.32 6.03194 158.65 6.03194C159.058 6.03194 159.305 6.21001 159.391 6.5653C159.911 6.6843 160.373 7.03958 160.774 7.63244C160.774 7.82292 160.847 8.03353 160.992 8.26425L161.199 8.16537H161.308C161.446 9.1332 161.516 9.66356 161.516 9.75559H161.733V9.54798C162.036 9.54798 162.214 10.0415 162.267 11.0295C162.366 11.0295 162.507 11.5265 162.692 12.5204C162.764 12.5204 162.8 12.5568 162.8 12.6291C162.8 12.7015 162.764 12.7378 162.692 12.7378L163.008 14.9697C162.935 15.352 162.899 15.6709 162.899 15.9277V17.0929C162.899 17.2577 162.866 17.4028 162.8 17.5278C162.866 17.6592 162.899 17.7645 162.899 17.8437C162.642 20.4638 162.432 21.7745 162.267 21.7745L162.375 22.5249V24.4404C162.375 24.5984 162.339 24.7401 162.267 24.8651C162.339 24.9905 162.375 25.1317 162.375 25.2901V25.3984C162.375 25.5371 162.303 25.606 162.158 25.606C162.158 25.5337 162.122 25.4973 162.049 25.4973V25.606L162.267 25.9219V26.1394L161.842 29.5467L161.308 30.3955C161.071 30.3955 160.857 30.5008 160.666 30.7119C160.666 30.7842 160.702 30.8202 160.774 30.8202L160.666 31.8873V32.0945ZM126.323 10.2633C127.309 9.89685 128.235 9.59036 129.101 9.34423H129.195V9.52401C128.886 9.54156 128.731 9.60449 128.731 9.71364C128.175 9.74789 127.897 9.87117 127.897 10.0831H127.622C127.415 10.0831 127.201 10.1747 126.977 10.3579H126.323V10.2633ZM136.904 24.315H136.999C136.999 24.1832 136.907 23.997 136.724 23.7564V23.4816L136.81 23.2924L136.259 22.3648C135.239 21.3332 134.064 20.4082 132.734 19.5893C131.445 18.8274 130.797 18.3946 130.791 18.2919C130.281 18.074 128.923 17.2436 126.716 15.8001C125.507 15.1183 124.675 14.4081 124.222 13.6689C124.251 13.4227 124.343 13.2995 124.497 13.2995C124.497 12.8872 126.386 12.2195 127.992 11.5607C128.92 11.3086 129.384 11.0937 129.384 10.916C130.984 10.3835 131.878 10.0428 132.067 9.89385C132.996 9.68753 133.46 9.533 133.46 9.42984C133.597 9.42984 133.721 9.64772 133.829 10.0831L133.735 10.2633C133.735 10.3895 133.826 10.452 134.01 10.452V10.5466C133.826 10.5466 133.735 10.6387 133.735 10.8219C133.798 11.1309 133.984 11.532 134.294 12.0247H134.569L134.474 11.8359H134.75C135.019 11.0338 135.237 10.6327 135.403 10.6327V10.452C135.403 10.1485 135.494 9.83949 135.678 9.52401C135.615 9.41572 135.583 9.29201 135.583 9.15503C135.555 8.94314 135.062 8.54206 134.104 7.9522L132.531 7.48819H132.437C132.013 7.48819 131.551 7.58236 131.053 7.77156C129.315 8.13797 128.204 8.50738 127.716 8.88022L127.527 8.78562H127.347C127.031 9.03175 126.63 9.18628 126.143 9.24963L122.902 10.7273C121.566 11.4147 120.824 12.1253 120.675 12.8581C120.675 12.9497 120.829 13.3508 121.139 14.061L121.044 14.2502C121.044 14.302 121.168 14.5768 121.414 15.075C121.414 15.2411 121.569 15.4273 121.879 15.6336C121.879 15.8113 122.156 16.1807 122.712 16.7419C123.406 17.1601 123.93 17.5612 124.286 17.9447C124.905 18.0534 125.215 18.2084 125.215 18.4087C126.43 19.0735 127.109 19.5058 127.252 19.7066C128.817 20.5712 130.422 21.5879 132.067 22.7569C133.116 23.295 133.641 23.6674 133.641 23.8737C133.004 24.3831 131.121 24.7846 127.992 25.0765C127.992 25.0136 127.96 24.9819 127.897 24.9819C127.788 25.0448 127.665 25.0765 127.527 25.0765H123.916C122.93 25.0765 122.437 25.4459 122.437 26.1848V26.46C122.672 26.46 122.827 26.6779 122.902 27.1128L123.452 27.4826C123.716 27.6654 123.902 27.7574 124.011 27.7574C124.36 28.0036 124.607 28.1264 124.75 28.1264C124.75 28.4419 125.338 28.6598 126.513 28.78V28.8657L126.418 29.0544C126.922 29.0544 127.232 29.1148 127.347 29.2351H127.622L128.181 29.149L128.361 29.2351C129.25 29.1606 130.02 29.0694 130.674 28.9603C130.674 29.0232 130.706 29.0544 130.769 29.0544C131.99 28.9059 133.225 28.5964 134.474 28.1264C134.87 28.0352 135.211 27.6341 135.497 26.924H136.142L136.331 26.2794V25.996C136.331 25.8526 137.094 24.7217 136.904 24.315Z" fill="#1D1D1F"/>
</svg>
